<svg width="354" height="203" viewBox="0 0 354 203" fill="none" xmlns="http://www.w3.org/2000/svg">
<path d="M8.33899 201.159H1.76467C0.912444 201.159 0.303711 200.428 0.303711 199.697V149.139C0.303711 148.286 1.03419 147.677 1.76467 147.677H18.3222C21.1224 147.677 23.6791 148.042 25.9923 148.895C28.3054 149.748 30.2534 150.844 31.9578 152.306C33.5406 153.768 34.8798 155.596 35.732 157.667C36.5842 159.738 37.0712 162.052 37.0712 164.611C37.0712 167.047 36.5842 169.24 35.732 171.311C34.8798 173.382 33.5406 175.088 31.9578 176.55C30.2534 178.012 28.3054 179.108 25.9923 179.961C23.6791 180.814 21.1224 181.179 18.3222 181.179H9.79995V199.697C9.9217 200.428 9.19122 201.159 8.33899 201.159ZM18.3222 173.382C19.7832 173.382 21.1224 173.139 22.2181 172.773C23.3138 172.286 24.2878 171.677 25.0183 170.946C25.7488 170.215 26.3575 169.24 26.7227 168.144C27.088 167.047 27.3315 165.951 27.3315 164.733C27.3315 163.393 27.088 162.174 26.7227 161.078C26.3575 159.981 25.7488 159.007 25.0183 158.154C24.2878 157.301 23.3138 156.692 22.0964 156.205C21.0006 155.717 19.6614 155.474 18.2005 155.474H9.67821V173.382H18.3222V173.382Z" fill="white"/>
<path d="M62.2726 149.139V199.575C62.2726 200.428 61.5421 201.037 60.8116 201.037H54.2373C53.3851 201.037 52.7764 200.306 52.7764 199.575V149.139C52.7764 148.286 53.5068 147.677 54.2373 147.677H60.8116C61.5421 147.677 62.2726 148.408 62.2726 149.139Z" fill="white"/>
<path d="M351.665 149.139V199.575C351.665 200.428 350.934 201.037 350.204 201.037H343.629C342.777 201.037 342.168 200.306 342.168 199.575V149.139C342.168 148.286 342.899 147.677 343.629 147.677H350.204C351.056 147.677 351.665 148.408 351.665 149.139Z" fill="white"/>
<path d="M103.545 155.596V199.697C103.545 200.55 102.814 201.159 102.084 201.159H95.5094C94.6572 201.159 94.0484 200.428 94.0484 199.697V155.596H79.1953C78.3431 155.596 77.7344 154.865 77.7344 154.134V149.261C77.7344 148.408 78.4649 147.799 79.1953 147.799H118.52C119.372 147.799 119.98 148.53 119.98 149.261V154.134C119.98 154.987 119.25 155.596 118.52 155.596H103.545Z" fill="white"/>
<path d="M143.356 177.403V193.24H167.583C168.435 193.24 169.044 193.971 169.044 194.702V199.454C169.044 200.306 168.314 200.916 167.583 200.916H135.32C134.468 200.916 133.859 200.185 133.859 199.454V149.139C133.859 148.286 134.59 147.677 135.32 147.677H167.461C168.314 147.677 168.922 148.408 168.922 149.139V154.012C168.922 154.865 168.192 155.474 167.461 155.474H143.356V169.728H163.809C164.661 169.728 165.27 170.459 165.27 171.19V175.819C165.27 176.672 164.54 177.281 163.809 177.281H143.356V177.403Z" fill="white"/>
<path d="M194.124 180.814V199.697C194.124 200.55 193.394 201.159 192.663 201.159H186.089C185.237 201.159 184.628 200.428 184.628 199.697V149.139C184.628 148.286 185.359 147.677 186.089 147.677H202.038C204.838 147.677 207.517 148.042 209.83 148.773C212.143 149.504 214.213 150.479 215.917 151.819C217.622 153.159 218.961 154.865 219.813 156.814C220.787 158.763 221.152 161.2 221.152 163.88C221.152 165.707 220.909 167.413 220.422 168.997C219.935 170.459 219.326 171.799 218.474 173.017C217.622 174.235 216.526 175.332 215.43 176.184C214.213 177.037 212.873 177.89 211.412 178.499L222.613 200.185C222.857 200.672 222.491 201.159 222.004 201.159H213.604C212.995 201.159 212.508 200.794 212.265 200.306L202.525 180.814H194.124V180.814ZM202.038 173.017C203.621 173.017 204.96 172.773 206.177 172.286C207.395 171.799 208.491 171.19 209.221 170.337C209.951 169.606 210.438 168.753 210.804 167.778C211.169 166.804 211.412 165.585 211.412 164.367C211.412 162.905 211.169 161.565 210.682 160.469C210.195 159.372 209.586 158.398 208.734 157.667C207.882 156.936 206.908 156.448 205.812 156.083C204.716 155.717 203.377 155.474 201.916 155.474H194.003V173.017H202.038V173.017Z" fill="white"/>
<path d="M263.032 184.347C262.667 183.494 261.936 182.641 261.084 181.91C260.232 181.179 259.136 180.57 257.797 179.961C256.458 179.352 254.997 178.865 253.171 178.377C250.492 177.646 247.935 176.672 245.744 175.575C243.553 174.479 241.726 173.261 240.265 171.92C238.804 170.58 237.709 169.118 236.856 167.413C236.126 165.707 235.639 163.88 235.639 161.809C235.639 159.616 236.126 157.545 237.1 155.717C238.074 153.89 239.413 152.306 241.118 151.088C242.822 149.748 244.77 148.773 246.961 148.164C249.153 147.433 251.588 147.189 254.144 147.189C256.823 147.189 259.38 147.555 261.571 148.408C263.884 149.261 265.832 150.357 267.537 151.819C269.241 153.281 270.459 154.986 271.432 156.936C272.163 158.519 272.65 160.103 272.772 161.809C272.893 162.662 272.163 163.514 271.311 163.514H265.467C264.128 163.514 263.519 163.027 263.397 162.296C263.275 161.443 263.032 160.712 262.788 160.103C262.302 159.007 261.815 158.154 260.962 157.423C260.11 156.692 259.136 156.083 258.04 155.596C256.945 155.108 255.605 154.986 254.023 154.986C252.684 154.986 251.466 155.108 250.37 155.474C249.275 155.839 248.301 156.327 247.57 156.936C246.84 157.545 246.231 158.276 245.744 159.25C245.379 160.103 245.135 161.078 245.135 162.174C245.135 163.271 245.379 164.245 245.987 165.22C246.596 166.073 247.327 166.804 248.301 167.535C249.275 168.266 250.492 168.875 251.831 169.362C253.171 169.849 254.631 170.337 256.214 170.824C258.04 171.311 259.867 172.042 261.571 172.773C263.275 173.504 264.858 174.479 266.319 175.453C268.267 176.915 269.972 178.743 271.067 180.692C272.285 182.763 272.893 185.078 272.893 187.758C272.893 190.073 272.406 192.144 271.432 193.971C270.459 195.799 269.119 197.261 267.415 198.601C265.71 199.819 263.762 200.794 261.571 201.403C259.258 202.012 256.823 202.377 254.266 202.377C251.588 202.377 249.031 202.012 246.474 201.159C243.918 200.306 241.726 199.21 239.778 197.626C237.952 196.164 236.613 194.337 235.517 192.388C234.665 190.804 234.178 188.976 234.056 187.027C233.935 186.174 234.665 185.322 235.517 185.322H242.092C242.822 185.322 243.431 185.809 243.553 186.54C243.674 187.636 243.918 188.611 244.405 189.464C245.013 190.682 245.744 191.657 246.718 192.388C247.692 193.119 248.788 193.728 250.127 194.093C251.466 194.459 252.927 194.702 254.388 194.702C255.727 194.702 256.945 194.58 258.04 194.215C259.136 193.849 260.11 193.484 260.841 192.875C261.571 192.266 262.18 191.535 262.667 190.682C263.154 189.829 263.275 188.855 263.275 187.88C263.641 186.174 263.397 185.2 263.032 184.347Z" fill="white"/>
<path d="M298.583 184.956V199.697C298.583 200.55 297.852 201.159 297.122 201.159H290.426C289.574 201.159 288.965 200.428 288.965 199.697V149.139C288.965 148.286 289.695 147.677 290.426 147.677H297.122C297.974 147.677 298.583 148.408 298.583 149.139V172.408L316.601 148.286C316.845 147.92 317.332 147.677 317.819 147.677H327.315C327.924 147.677 328.167 148.286 327.924 148.773L307.714 174.966L328.898 200.063C329.141 200.55 328.898 201.159 328.289 201.159H319.036C318.549 201.159 318.062 200.916 317.819 200.428L298.705 178.865L298.583 184.956Z" fill="white"/>
<path d="M172.862 129.353C172.065 129.353 171.467 129.154 170.869 128.555C169.075 126.96 128.219 89.4664 116.859 72.5147C113.47 67.5288 111.677 61.3464 111.677 54.9646C111.677 37.0156 126.026 22.457 143.764 22.457C156.519 22.457 167.68 30.0355 172.862 41.2037C178.243 30.4343 189.205 23.2547 201.561 23.2547C219.498 23.2547 233.649 37.2151 233.649 54.9646C233.649 62.543 232.054 68.3265 228.666 73.1129C215.911 91.0619 176.649 127.159 174.855 128.555C174.257 128.954 173.46 129.353 172.862 129.353ZM143.764 28.44C129.415 28.44 117.656 40.406 117.656 54.9646C117.656 60.3493 119.051 65.1356 121.841 69.3237C131.408 83.6829 164.292 114.595 172.862 122.373C181.233 114.595 213.121 84.8795 223.684 69.7226C226.474 65.7339 227.67 61.3464 227.67 54.9646C227.67 40.6054 216.11 29.2377 201.561 29.2377C188.408 29.2377 177.247 39.2094 175.652 52.3719C175.453 53.9674 174.257 54.9646 172.663 54.9646C171.068 54.9646 169.873 53.768 169.673 52.1725C168.477 38.6111 157.317 28.44 143.764 28.44Z" fill="white"/>
<path d="M260.538 112.602C259.74 112.602 258.943 112.402 258.345 111.804C257.15 110.607 257.15 108.812 258.345 107.616L332.485 33.4267C333.681 32.2301 335.475 32.2301 336.67 33.4267C337.866 34.6233 337.866 36.4182 336.67 37.6148L262.531 111.804C262.132 112.402 261.335 112.602 260.538 112.602Z" fill="white"/>
<path d="M318.93 125.961C318.133 125.961 317.336 125.761 316.738 125.163L297.805 106.217L278.871 125.163C277.675 126.36 275.881 126.36 274.686 125.163C273.49 123.966 273.49 122.171 274.686 120.975L295.812 99.8349C297.007 98.6384 298.801 98.6384 299.997 99.8349L321.123 120.975C322.319 122.171 322.319 123.966 321.123 125.163C320.525 125.761 319.728 125.961 318.93 125.961Z" fill="white"/>
<path d="M297.408 46.1891C296.611 46.1891 295.814 45.9897 295.216 45.3914L274.09 24.2515C272.894 23.0549 272.894 21.2601 274.09 20.0635C275.286 18.8669 277.079 18.8669 278.275 20.0635L297.209 39.0096L316.142 20.0635C317.338 18.8669 319.132 18.8669 320.327 20.0635C321.523 21.2601 321.523 23.0549 320.327 24.2515L299.202 45.3914C298.803 45.9897 298.006 46.1891 297.408 46.1891Z" fill="white"/>
<path d="M297.408 128.153C295.813 128.153 294.418 126.757 294.418 125.162V20.0608C294.418 18.4654 295.813 17.0693 297.408 17.0693C299.002 17.0693 300.397 18.4654 300.397 20.0608V125.162C300.397 126.757 299.002 128.153 297.408 128.153Z" fill="white"/>
<path d="M348.029 96.4464C347.232 96.4464 346.435 96.247 345.837 95.6487L324.711 74.3094C323.515 73.1128 323.515 71.3179 324.711 70.1213L345.837 48.9814C347.033 47.7848 348.826 47.7848 350.022 48.9814C351.218 50.178 351.218 51.9729 350.022 53.1695L331.089 72.1156L350.022 91.0617C351.218 92.2583 351.218 94.0532 350.022 95.2498C349.424 96.0475 348.826 96.4464 348.029 96.4464Z" fill="white"/>
<path d="M247.185 97.0466C246.388 97.0466 245.591 96.8471 244.993 96.2488C243.797 95.0523 243.797 93.2573 244.993 92.0607L263.926 73.1146L244.993 54.1685C243.797 52.9719 243.797 51.1771 244.993 49.9805C246.189 48.7839 247.982 48.7839 249.178 49.9805L270.304 71.1203C270.902 71.7186 271.101 72.5163 271.101 73.3141C271.101 74.1118 270.703 74.9096 270.304 75.5079L249.178 96.6477C248.779 96.6477 247.982 97.0466 247.185 97.0466Z" fill="white"/>
<path d="M350.023 75.7046H244.991C243.397 75.7046 242.002 74.3086 242.002 72.7132C242.002 71.1177 243.397 69.7217 244.991 69.7217H350.023C351.617 69.7217 353.012 71.1177 353.012 72.7132C353.012 74.3086 351.817 75.7046 350.023 75.7046Z" fill="white"/>
<path d="M334.677 112.602C333.88 112.602 333.083 112.402 332.485 111.804L258.345 37.6148C257.15 36.4182 257.15 34.6233 258.345 33.4267C259.541 32.2301 261.335 32.2301 262.531 33.4267L336.67 107.616C337.866 108.812 337.866 110.607 336.67 111.804C336.272 112.402 335.475 112.602 334.677 112.602Z" fill="white"/>
<path d="M77.072 127.959C68.7014 127.959 60.9287 124.17 55.5476 117.589H49.3692C43.7888 124.569 35.2189 128.358 26.2504 127.76C12.2993 126.962 0.939179 115.395 0.341277 101.435C-0.0573247 93.8565 2.73289 86.6769 7.91471 81.2922C13.0965 75.9075 20.2714 72.916 27.8448 72.916H78.0686H78.2678C85.642 73.3149 92.4182 76.5058 97.4007 82.0899C102.383 87.4746 104.775 94.6542 104.376 102.033C103.579 115.794 92.2189 127.162 78.4671 127.959C78.0685 127.959 77.6699 127.959 77.072 127.959ZM47.9741 111.606H57.142C58.1385 111.606 58.9357 112.005 59.5336 112.803C63.9182 118.786 70.8937 122.176 78.2678 121.777C89.0301 121.179 97.7993 112.204 98.3972 101.435C98.7958 95.6514 96.8028 90.2667 93.0161 85.8791C89.2294 81.6911 83.8483 79.0984 78.0686 78.6996H27.8448C21.8658 78.6996 16.4846 81.0928 12.2993 85.2808C8.11401 89.4689 6.121 95.2525 6.3203 101.036C6.7189 112.005 15.6874 120.979 26.4497 121.578C33.8238 121.976 40.9986 118.586 45.1839 112.603C46.1804 112.005 46.9776 111.606 47.9741 111.606Z" fill="white"/>
<path d="M93.812 84.6829C92.2176 84.6829 90.8225 83.2869 90.8225 81.6914V60.5516C90.8225 59.355 90.4239 58.1584 89.4274 57.3606L65.312 33.4287C58.1372 26.2491 46.5778 26.2491 39.4029 33.6282L15.6861 57.5601C14.8889 58.3578 14.291 59.5544 14.291 60.751V81.6914C14.291 83.2869 12.8959 84.6829 11.3015 84.6829C9.70712 84.6829 8.31201 83.2869 8.31201 81.6914V60.751C8.31201 57.9589 9.30852 55.3663 11.3015 53.372L35.0183 29.4401C44.3854 19.8673 59.9309 19.8673 69.4973 29.2406L93.6127 53.1725C95.6057 55.1669 96.8015 57.9589 96.8015 60.751V81.8909C96.8015 83.2869 95.4064 84.6829 93.812 84.6829Z" fill="white"/>
<path d="M52.5576 28.0422C44.9842 28.0422 38.8059 21.8598 38.8059 14.2814C38.8059 6.70292 44.9842 0.520508 52.5576 0.520508C60.1311 0.520508 66.3094 6.70292 66.3094 14.2814C66.3094 21.8598 60.1311 28.0422 52.5576 28.0422ZM52.5576 6.50349C48.3723 6.50349 44.7849 9.89384 44.7849 14.2814C44.7849 18.6689 48.173 22.0592 52.5576 22.0592C56.743 22.0592 60.3304 18.6689 60.3304 14.2814C60.3304 9.89384 56.743 6.50349 52.5576 6.50349Z" fill="white"/>
<path d="M17.481 108.217C16.6838 108.217 15.8866 108.018 15.2887 107.42C14.0929 106.223 14.0929 104.428 15.2887 103.232L29.0404 89.4707C30.2362 88.2741 32.0299 88.2741 33.2257 89.4707C34.4216 90.6673 34.4216 92.4622 33.2257 93.6588L19.474 107.42C19.0754 107.818 18.2782 108.217 17.481 108.217Z" fill="white"/>
<path d="M16.2859 97.2469C15.4887 97.2469 14.6915 97.0475 14.0936 96.4492C12.8978 95.2526 12.8978 93.4577 14.0936 92.2611L18.0796 88.2724C19.2755 87.0759 21.0692 87.0759 22.265 88.2724C23.4608 89.469 23.4608 91.2639 22.265 92.4605L18.2789 96.4492C17.8803 96.8481 17.0831 97.2469 16.2859 97.2469Z" fill="white"/>
</svg>
