<svg width="239" height="176" viewBox="0 0 239 176" fill="none" xmlns="http://www.w3.org/2000/svg">
<path d="M37.3062 175.253H34.1078C33.7178 175.253 33.4058 174.94 33.4058 174.55V149.805C33.4058 149.415 33.7178 149.103 34.1078 149.103H42.2207C43.6248 149.103 44.873 149.337 45.9651 149.727C47.0572 150.117 48.0713 150.664 48.8514 151.444C49.6314 152.147 50.2555 153.006 50.7236 154.02C51.1916 155.035 51.4256 156.206 51.4256 157.455C51.4256 158.626 51.1916 159.719 50.7236 160.733C50.2555 161.748 49.6314 162.607 48.8514 163.309C48.0713 164.012 47.0572 164.558 45.9651 164.949C44.873 165.339 43.5468 165.573 42.2207 165.573H38.0862V174.628C38.0082 174.94 37.6962 175.253 37.3062 175.253ZM42.1427 161.592C42.8447 161.592 43.5468 161.514 44.0929 161.28C44.6389 161.046 45.107 160.733 45.497 160.343C45.8871 159.953 46.1991 159.484 46.3551 159.016C46.5111 158.47 46.6671 157.923 46.6671 157.377C46.6671 156.752 46.5891 156.128 46.3551 155.581C46.1991 155.035 45.8871 154.567 45.497 154.176C45.107 153.786 44.6389 153.474 44.0929 153.24C43.5468 153.006 42.9228 152.849 42.1427 152.849H38.0082V161.592H42.1427Z" fill="white"/>
<path d="M63.7509 149.726V174.471C63.7509 174.862 63.4389 175.174 63.0488 175.174H59.8505C59.4605 175.174 59.1484 174.862 59.1484 174.471V149.726C59.1484 149.336 59.4605 149.024 59.8505 149.024H63.0488C63.3609 149.024 63.7509 149.336 63.7509 149.726Z" fill="white"/>
<path d="M205.96 149.726V174.471C205.96 174.862 205.648 175.174 205.258 175.174H202.059C201.669 175.174 201.357 174.862 201.357 174.471V149.726C201.357 149.336 201.669 149.024 202.059 149.024H205.258C205.57 149.024 205.96 149.336 205.96 149.726Z" fill="white"/>
<path d="M84.0328 152.849V174.471C84.0328 174.862 83.7208 175.174 83.3307 175.174H80.1324C79.7424 175.174 79.4303 174.862 79.4303 174.471V152.849H72.1756C71.7855 152.849 71.4735 152.537 71.4735 152.146V149.726C71.4735 149.336 71.7855 149.024 72.1756 149.024H91.5216C91.9116 149.024 92.2237 149.336 92.2237 149.726V152.146C92.2237 152.537 91.9116 152.849 91.5216 152.849H84.0328Z" fill="white"/>
<path d="M103.535 163.621V171.427H115.392C115.782 171.427 116.094 171.739 116.094 172.13V174.471C116.094 174.862 115.782 175.174 115.392 175.174H99.4786C99.0885 175.174 98.7765 174.862 98.7765 174.471V149.726C98.7765 149.336 99.0885 149.024 99.4786 149.024H115.314C115.704 149.024 116.016 149.336 116.016 149.726V152.146C116.016 152.537 115.704 152.849 115.314 152.849H103.457V159.874H113.52C113.91 159.874 114.222 160.186 114.222 160.577V162.841C114.222 163.231 113.91 163.543 113.52 163.543H103.535V163.621Z" fill="white"/>
<path d="M128.498 165.261V174.55C128.498 174.94 128.186 175.253 127.796 175.253H124.597C124.207 175.253 123.895 174.94 123.895 174.55V149.805C123.895 149.415 124.207 149.103 124.597 149.103H132.398C133.802 149.103 135.05 149.259 136.22 149.649C137.391 149.961 138.405 150.508 139.185 151.132C140.043 151.757 140.667 152.615 141.135 153.552C141.603 154.567 141.837 155.66 141.837 156.987C141.837 157.923 141.759 158.704 141.525 159.484C141.291 160.265 140.979 160.89 140.589 161.436C140.121 162.06 139.653 162.529 139.029 162.997C138.483 163.466 137.781 163.856 137.079 164.168L142.617 174.784C142.695 175.018 142.539 175.253 142.305 175.253H138.171C137.859 175.253 137.625 175.096 137.547 174.862L132.788 165.261H128.498V165.261ZM132.398 161.436C133.178 161.436 133.88 161.358 134.426 161.124C135.05 160.89 135.518 160.577 135.986 160.187C136.298 159.875 136.61 159.406 136.766 158.938C136.922 158.47 137.079 157.845 137.079 157.221C137.079 156.518 137.001 155.894 136.766 155.269C136.532 154.723 136.22 154.254 135.752 153.864C135.362 153.552 134.894 153.24 134.27 153.084C133.724 152.927 133.1 152.849 132.32 152.849H128.42V161.436H132.398Z" fill="white"/>
<path d="M162.353 166.978C162.119 166.509 161.807 166.119 161.417 165.729C160.949 165.417 160.481 165.026 159.779 164.792C159.155 164.48 158.375 164.246 157.517 164.012C156.19 163.621 154.942 163.153 153.928 162.685C152.836 162.138 151.978 161.514 151.276 160.889C150.574 160.265 150.028 159.484 149.638 158.625C149.248 157.767 149.092 156.908 149.092 155.893C149.092 154.801 149.326 153.786 149.794 152.849C150.262 151.912 150.886 151.21 151.744 150.585C152.524 149.961 153.538 149.492 154.63 149.102C155.722 148.79 156.892 148.634 158.141 148.634C159.467 148.634 160.715 148.868 161.807 149.258C162.899 149.649 163.913 150.195 164.693 150.898C165.473 151.6 166.175 152.459 166.643 153.473C167.034 154.254 167.19 155.035 167.268 155.893C167.346 156.362 166.955 156.752 166.565 156.752H163.679C163.055 156.752 162.743 156.518 162.665 156.128C162.587 155.737 162.509 155.347 162.353 155.035C162.119 154.488 161.885 154.098 161.495 153.708C161.105 153.317 160.637 153.005 160.091 152.849C159.545 152.615 158.843 152.537 158.141 152.537C157.517 152.537 156.892 152.615 156.346 152.771C155.8 152.927 155.332 153.161 154.942 153.473C154.552 153.786 154.24 154.176 154.084 154.566C153.85 154.957 153.772 155.503 153.772 155.971C153.772 156.518 153.928 156.986 154.162 157.455C154.396 157.845 154.786 158.235 155.332 158.547C155.8 158.86 156.424 159.172 157.048 159.406C157.751 159.64 158.453 159.874 159.233 160.109C160.169 160.343 161.027 160.655 161.885 161.045C162.743 161.436 163.523 161.826 164.225 162.372C165.239 163.075 166.019 163.933 166.565 164.948C167.19 165.963 167.424 167.056 167.424 168.383C167.424 169.554 167.19 170.569 166.721 171.427C166.253 172.286 165.629 173.066 164.771 173.691C163.991 174.315 162.977 174.784 161.885 175.096C160.793 175.408 159.545 175.564 158.297 175.564C156.97 175.564 155.722 175.33 154.474 174.94C153.226 174.55 152.134 174.003 151.198 173.223C150.34 172.52 149.638 171.661 149.092 170.647C148.702 169.866 148.468 169.007 148.312 167.993C148.234 167.524 148.624 167.212 149.014 167.212H152.212C152.602 167.212 152.914 167.446 152.914 167.836C152.992 168.383 153.148 168.851 153.304 169.32C153.538 169.866 153.928 170.412 154.396 170.725C154.864 171.115 155.41 171.349 156.034 171.583C156.658 171.739 157.36 171.818 158.141 171.818C158.843 171.818 159.389 171.739 159.935 171.583C160.481 171.427 160.949 171.193 161.339 170.881C161.729 170.569 162.041 170.256 162.275 169.788C162.509 169.398 162.587 168.929 162.587 168.383C162.665 167.915 162.509 167.446 162.353 166.978Z" fill="white"/>
<path d="M179.827 167.29V174.549C179.827 174.94 179.515 175.252 179.125 175.252H175.848C175.458 175.252 175.146 174.94 175.146 174.549V149.805C175.146 149.414 175.458 149.102 175.848 149.102H179.125C179.515 149.102 179.827 149.414 179.827 149.805V161.201L188.642 149.336C188.798 149.18 189.032 149.024 189.266 149.024H193.946C194.258 149.024 194.414 149.336 194.18 149.57L184.273 162.45L194.648 174.784C194.804 175.018 194.648 175.33 194.336 175.33H189.734C189.5 175.33 189.266 175.174 189.11 174.94L179.749 164.402L179.827 167.29Z" fill="white"/>
<path d="M237.631 165.025H215.555C214.931 165.025 214.385 164.479 214.385 163.854C214.385 163.23 214.931 162.683 215.555 162.683H235.369L119.605 3.44124L3.84074 162.683H24.7469C25.371 162.683 25.917 163.23 25.917 163.854C25.917 164.479 25.371 165.025 24.7469 165.025H1.5785C1.11046 165.025 0.720415 164.791 0.564399 164.401C0.330374 164.01 0.408382 163.542 0.642407 163.152L118.669 0.787206C119.137 0.162728 120.151 0.162728 120.541 0.787206L238.567 163.23C238.801 163.62 238.879 164.088 238.645 164.479C238.411 164.869 238.099 165.025 237.631 165.025Z" fill="white"/>
<path d="M119.683 142.872C119.371 142.872 119.137 142.794 118.903 142.56C118.201 141.935 102.209 127.26 97.7628 120.625C96.4367 118.673 95.7346 116.253 95.7346 113.755C95.7346 106.73 101.351 101.032 108.294 101.032C113.286 101.032 117.655 103.998 119.683 108.369C121.789 104.154 126.08 101.344 130.916 101.344C137.937 101.344 143.476 106.808 143.476 113.755C143.476 116.722 142.852 118.985 141.525 120.859C136.533 127.884 121.165 142.013 120.463 142.56C120.229 142.716 119.917 142.872 119.683 142.872ZM108.294 103.374C102.677 103.374 98.0749 108.057 98.0749 113.755C98.0749 115.863 98.6209 117.737 99.713 119.376C103.457 124.996 116.329 137.095 119.683 140.14C122.959 137.095 135.441 125.464 139.575 119.532C140.667 117.971 141.135 116.253 141.135 113.755C141.135 108.135 136.611 103.686 130.916 103.686C125.768 103.686 121.399 107.589 120.775 112.741C120.697 113.365 120.229 113.755 119.605 113.755C118.981 113.755 118.513 113.287 118.435 112.663C117.967 107.355 113.598 103.374 108.294 103.374Z" fill="white"/>
<path d="M154.006 136.316C153.694 136.316 153.382 136.238 153.148 136.003C152.68 135.535 152.68 134.832 153.148 134.364L182.167 105.326C182.635 104.858 183.337 104.858 183.805 105.326C184.273 105.794 184.273 106.497 183.805 106.965L154.786 136.003C154.63 136.238 154.318 136.316 154.006 136.316Z" fill="white"/>
<path d="M176.863 141.544C176.551 141.544 176.239 141.466 176.005 141.232L168.594 133.816L161.183 141.232C160.715 141.701 160.013 141.701 159.545 141.232C159.077 140.764 159.077 140.061 159.545 139.593L167.814 131.319C168.282 130.85 168.984 130.85 169.452 131.319L177.721 139.593C178.189 140.061 178.189 140.764 177.721 141.232C177.487 141.466 177.175 141.544 176.863 141.544Z" fill="white"/>
<path d="M168.438 110.32C168.126 110.32 167.814 110.242 167.58 110.008L159.311 101.734C158.843 101.265 158.843 100.563 159.311 100.094C159.779 99.6261 160.481 99.6261 160.949 100.094L168.36 107.51L175.771 100.094C176.239 99.6261 176.941 99.6261 177.409 100.094C177.877 100.563 177.877 101.265 177.409 101.734L169.14 110.008C168.984 110.242 168.672 110.32 168.438 110.32Z" fill="white"/>
<path d="M168.438 142.403C167.814 142.403 167.268 141.857 167.268 141.232V100.095C167.268 99.4702 167.814 98.9238 168.438 98.9238C169.062 98.9238 169.608 99.4702 169.608 100.095V141.232C169.608 141.857 169.062 142.403 168.438 142.403Z" fill="white"/>
<path d="M188.252 129.992C187.94 129.992 187.628 129.914 187.394 129.68L179.125 121.328C178.657 120.859 178.657 120.157 179.125 119.689L187.394 111.414C187.862 110.946 188.564 110.946 189.032 111.414C189.5 111.883 189.5 112.585 189.032 113.054L181.621 120.469L189.032 127.885C189.5 128.353 189.5 129.056 189.032 129.524C188.798 129.836 188.564 129.992 188.252 129.992Z" fill="white"/>
<path d="M148.78 130.226C148.468 130.226 148.156 130.148 147.922 129.914C147.454 129.445 147.454 128.743 147.922 128.275L155.332 120.859L147.922 113.443C147.454 112.975 147.454 112.272 147.922 111.804C148.39 111.336 149.092 111.336 149.56 111.804L157.829 120.078C158.063 120.312 158.141 120.625 158.141 120.937C158.141 121.249 157.985 121.561 157.829 121.796L149.56 130.07C149.404 130.07 149.092 130.226 148.78 130.226Z" fill="white"/>
<path d="M189.032 121.875H147.922C147.298 121.875 146.752 121.329 146.752 120.704C146.752 120.08 147.298 119.533 147.922 119.533H189.032C189.656 119.533 190.202 120.08 190.202 120.704C190.202 121.329 189.734 121.875 189.032 121.875Z" fill="white"/>
<path d="M183.025 136.315C182.713 136.315 182.401 136.237 182.167 136.003L153.148 106.965C152.68 106.496 152.68 105.794 153.148 105.325C153.616 104.857 154.319 104.857 154.787 105.325L183.806 134.364C184.274 134.832 184.274 135.535 183.806 136.003C183.65 136.237 183.338 136.315 183.025 136.315Z" fill="white"/>
<path d="M99.5724 78.2377C96.8421 78.2377 94.5798 75.974 94.5798 73.2419C94.5798 70.5098 96.8421 68.2461 99.5724 68.2461C102.303 68.2461 104.565 70.5098 104.565 73.2419C104.565 75.974 102.303 78.2377 99.5724 78.2377ZM99.5724 70.5098C98.0902 70.5098 96.9201 71.6807 96.9201 73.1639C96.9201 74.647 98.0902 75.8179 99.5724 75.8179C101.055 75.8179 102.225 74.647 102.225 73.1639C102.225 71.6807 101.055 70.5098 99.5724 70.5098Z" fill="white"/>
<path d="M116.812 91.7414C116.5 91.7414 116.188 91.6634 115.954 91.4292L103.941 79.408C103.473 78.9397 103.473 78.2371 103.941 77.7687C104.409 77.3004 105.111 77.3004 105.579 77.7687L117.592 89.79C118.06 90.2583 118.06 90.9608 117.592 91.4292C117.358 91.6634 117.124 91.7414 116.812 91.7414Z" fill="white"/>
<path d="M94.1899 69.1045C93.8778 69.1045 93.5658 69.0264 93.3318 68.7922L85.687 61.1424C85.2189 60.674 85.2189 59.9715 85.687 59.5031C86.155 59.0348 86.8571 59.0348 87.3251 59.5031L94.9699 67.153C95.438 67.6213 95.438 68.3239 94.9699 68.7922C94.8139 69.0264 94.5019 69.1045 94.1899 69.1045Z" fill="white"/>
<path d="M99.4942 93.3039C98.8702 93.3039 98.3241 92.7575 98.3241 92.1331V80.7363C98.3241 80.1118 98.8702 79.5654 99.4942 79.5654C100.118 79.5654 100.664 80.1118 100.664 80.7363V92.1331C100.664 92.7575 100.118 93.3039 99.4942 93.3039Z" fill="white"/>
<path d="M99.4942 66.919C98.8702 66.919 98.3241 66.3725 98.3241 65.7481V52.3218C98.3241 51.6973 98.8702 51.1509 99.4942 51.1509C100.118 51.1509 100.664 51.6973 100.664 52.3218V65.7481C100.664 66.4506 100.118 66.919 99.4942 66.919Z" fill="white"/>
<path d="M120.401 74.4131H106.983C106.359 74.4131 105.813 73.8667 105.813 73.2422C105.813 72.6177 106.359 72.0713 106.983 72.0713H120.401C121.025 72.0713 121.571 72.6177 121.571 73.2422C121.571 73.8667 121.025 74.4131 120.401 74.4131Z" fill="white"/>
<path d="M92.0837 74.4125L77.8082 74.3345C77.1841 74.3345 76.6381 73.788 76.6381 73.1636C76.6381 72.5391 77.1841 71.9927 77.8082 71.9927L92.0837 72.0707C92.7077 72.0707 93.2538 72.6172 93.2538 73.2416C93.2538 73.9442 92.7077 74.4125 92.0837 74.4125Z" fill="white"/>
<path d="M104.799 69.1058C104.487 69.1058 104.175 69.0278 103.941 68.7936C103.473 68.3252 103.473 67.6227 103.941 67.1543L119.308 51.7766C119.776 51.3082 120.478 51.3082 120.947 51.7766C121.415 52.2449 121.415 52.9475 120.947 53.4158L105.579 68.7936C105.423 69.0278 105.111 69.1058 104.799 69.1058Z" fill="white"/>
<path d="M82.1767 91.7414C81.8646 91.7414 81.5526 91.6634 81.3186 91.4292C80.8505 90.9608 80.8505 90.2583 81.3186 89.79L93.3318 77.7687C93.7999 77.3004 94.5019 77.3004 94.97 77.7687C95.438 78.2371 95.438 78.9397 94.97 79.408L82.9567 91.4292C82.8007 91.6634 82.4887 91.7414 82.1767 91.7414Z" fill="white"/>
<path d="M111.726 41.7682C111.336 41.7682 111.024 41.6121 110.79 41.2999L100.961 27.7955C100.571 27.2491 100.727 26.5466 101.195 26.1563C101.741 25.766 102.443 25.9221 102.833 26.3904L112.74 39.8948C113.13 40.4412 112.974 41.1437 112.506 41.534C112.272 41.6902 111.96 41.7682 111.726 41.7682Z" fill="white"/>
<path d="M128.654 33.6504C128.264 33.6504 127.952 33.4943 127.718 33.182L122.413 25.9225C122.023 25.3761 122.179 24.6735 122.647 24.2832C123.193 23.8929 123.895 24.049 124.286 24.5174L129.59 31.777C129.98 32.3234 129.824 33.0259 129.356 33.4162C129.122 33.5723 128.888 33.6504 128.654 33.6504Z" fill="white"/>
<path d="M111.96 41.9246C111.726 41.9246 111.492 41.8465 111.258 41.6904C110.712 41.3001 110.634 40.5976 111.024 40.0511L122.257 24.5953C122.647 24.0489 123.349 23.9708 123.895 24.3611C124.441 24.7514 124.519 25.454 124.129 26.0004L112.896 41.4562C112.662 41.7685 112.35 41.9246 111.96 41.9246Z" fill="white"/>
<path d="M128.654 33.65C128.42 33.65 128.186 33.5719 127.952 33.4158C127.406 33.0255 127.328 32.323 127.718 31.7765L134.036 23.1119C134.426 22.5655 135.128 22.4874 135.674 22.8777C136.221 23.268 136.299 23.9706 135.908 24.517L129.59 33.1816C129.356 33.4939 129.044 33.65 128.654 33.65Z" fill="white"/>
<path d="M81.9267 142.326C78.6504 142.326 75.6081 140.843 73.5019 138.267H71.0836C68.8994 140.999 65.545 142.482 62.0347 142.248C56.5741 141.936 52.1276 137.408 51.8936 131.944C51.7376 128.978 52.8297 126.168 54.8579 124.06C56.8861 121.953 59.6944 120.782 62.6587 120.782H82.3168H82.3948C85.2811 120.938 87.9334 122.187 89.8836 124.372C91.8338 126.48 92.7699 129.29 92.6138 132.178C92.3018 137.565 87.8553 142.014 82.4728 142.326C82.3168 142.326 82.1608 142.326 81.9267 142.326ZM70.5375 135.925H74.1259C74.516 135.925 74.828 136.081 75.062 136.394C76.7782 138.735 79.5085 140.063 82.3948 139.906C86.6072 139.672 90.0396 136.16 90.2736 131.944C90.4296 129.681 89.6495 127.573 88.1674 125.856C86.6852 124.216 84.579 123.202 82.3168 123.045H62.6587C60.3185 123.045 58.2123 123.982 56.5741 125.621C54.9359 127.261 54.1558 129.524 54.2339 131.788C54.3899 136.081 57.9002 139.594 62.1127 139.828C64.999 139.984 67.8073 138.657 69.4454 136.316C69.8355 136.081 70.1475 135.925 70.5375 135.925Z" fill="white"/>
<path d="M88.4795 125.387C87.8555 125.387 87.3094 124.84 87.3094 124.216V115.942C87.3094 115.473 87.1534 115.005 86.7633 114.693L77.3244 105.326C74.5161 102.515 69.9916 102.515 67.1833 105.404L57.9003 114.771C57.5883 115.083 57.3543 115.551 57.3543 116.02V124.216C57.3543 124.84 56.8082 125.387 56.1842 125.387C55.5601 125.387 55.014 124.84 55.014 124.216V116.02C55.014 114.927 55.4041 113.912 56.1842 113.131L65.4671 103.764C69.1335 100.017 75.2181 100.017 78.9625 103.686L88.4015 113.053C89.1816 113.834 89.6496 114.927 89.6496 116.02V124.294C89.6496 124.84 89.1036 125.387 88.4795 125.387Z" fill="white"/>
<path d="M72.3317 103.218C69.3673 103.218 66.9491 100.798 66.9491 97.8314C66.9491 94.8652 69.3673 92.4453 72.3317 92.4453C75.296 92.4453 77.7142 94.8652 77.7142 97.8314C77.7142 100.798 75.296 103.218 72.3317 103.218ZM72.3317 94.7871C70.6935 94.7871 69.2893 96.1141 69.2893 97.8314C69.2893 99.5488 70.6155 100.876 72.3317 100.876C73.9698 100.876 75.374 99.5488 75.374 97.8314C75.374 96.1141 73.9698 94.7871 72.3317 94.7871Z" fill="white"/>
<path d="M58.6023 134.598C58.2903 134.598 57.9782 134.52 57.7442 134.286C57.2762 133.817 57.2762 133.115 57.7442 132.647L63.1268 127.26C63.5948 126.792 64.2969 126.792 64.7649 127.26C65.233 127.729 65.233 128.431 64.7649 128.9L59.3824 134.286C59.2264 134.442 58.9143 134.598 58.6023 134.598Z" fill="white"/>
<path d="M58.1343 130.305C57.8223 130.305 57.5102 130.227 57.2762 129.993C56.8082 129.524 56.8082 128.822 57.2762 128.353L58.8364 126.792C59.3044 126.324 60.0065 126.324 60.4745 126.792C60.9426 127.261 60.9426 127.963 60.4745 128.431L58.9144 129.993C58.7584 130.149 58.4463 130.305 58.1343 130.305Z" fill="white"/>
<path d="M144.313 95.1048H139.944C139.341 95.1048 138.814 94.5771 138.814 93.974V90.2802H125.404C124.952 90.2802 124.576 89.9787 124.35 89.6017C124.199 89.2248 124.274 88.6971 124.576 88.3956L134.595 77.7665H126.76C126.308 77.7665 125.932 77.465 125.706 77.088C125.555 76.7111 125.63 76.1834 125.932 75.8819L137.006 64.122H130.904C130.452 64.122 130 63.8205 129.849 63.4436C129.698 63.0666 129.774 62.539 130.075 62.2374L141.3 51.0052C141.752 50.5529 142.43 50.5529 142.882 51.0052L154.106 62.2374C154.408 62.539 154.558 63.0666 154.332 63.4436C154.106 63.8205 153.73 64.122 153.278 64.122H147.176L158.25 75.8819C158.551 76.1834 158.626 76.7111 158.476 77.088C158.325 77.465 157.873 77.7665 157.421 77.7665H149.586L159.606 88.3956C159.907 88.6971 159.982 89.2248 159.832 89.6017C159.681 89.9787 159.229 90.2802 158.777 90.2802H145.368V93.974C145.443 94.5771 144.991 95.1048 144.313 95.1048ZM141.074 92.8432H143.183V89.1494C143.183 88.5464 143.71 88.0187 144.313 88.0187H156.291L146.272 77.3896C145.97 77.088 145.895 76.5603 146.046 76.1834C146.196 75.8065 146.648 75.505 147.1 75.505H154.935L143.861 63.7451C143.56 63.4436 143.484 62.9159 143.635 62.539C143.786 62.162 144.238 61.8605 144.69 61.8605H150.716L142.204 53.3421L133.616 61.7851H139.642C140.094 61.7851 140.471 62.0867 140.697 62.4636C140.848 62.8405 140.772 63.3682 140.471 63.6697L129.397 75.4296H137.232C137.684 75.4296 138.06 75.7311 138.286 76.108C138.437 76.485 138.362 77.0127 138.06 77.3142L128.041 87.9433H140.019C140.622 87.9433 141.149 88.471 141.149 89.0741V92.8432H141.074Z" fill="white"/>
</svg>
