<svg width="342" height="158" viewBox="0 0 342 158" fill="none" xmlns="http://www.w3.org/2000/svg">
<path d="M172.603 76.1763C172.132 76.1763 171.778 76.0585 171.425 75.7048C170.365 74.7618 146.217 52.6014 139.502 42.5821C137.5 39.6352 136.44 35.9811 136.44 32.2091C136.44 21.6004 144.921 12.9956 155.405 12.9956C162.944 12.9956 169.54 17.4748 172.603 24.0758C175.783 17.7106 182.262 13.4671 189.566 13.4671C200.167 13.4671 208.531 21.7183 208.531 32.2091C208.531 36.6884 207.588 40.1067 205.586 42.9357C198.047 53.5444 174.841 74.8797 173.781 75.7048C173.545 76.0585 173.074 76.1763 172.603 76.1763ZM155.523 16.5318C147.041 16.5318 140.091 23.6043 140.091 32.2091C140.091 35.3918 140.916 38.2207 142.565 40.6961C148.219 49.1831 167.656 67.4536 172.721 72.0507C177.668 67.4536 196.516 49.8903 202.759 40.9319C204.408 38.5744 205.115 35.9811 205.115 32.2091C205.115 23.7222 198.282 17.0033 189.683 17.0033C181.909 17.0033 175.312 22.8971 174.37 30.6768C174.252 31.6198 173.545 32.2091 172.603 32.2091C171.661 32.2091 170.954 31.5019 170.836 30.5589C170.011 22.6613 163.415 16.5318 155.523 16.5318Z" fill="black"/>
<path d="M226.317 67.336C225.846 67.336 225.375 67.2181 225.021 66.8645C224.315 66.1572 224.315 65.0963 225.021 64.3891L268.017 21.3649C268.724 20.6577 269.784 20.6577 270.491 21.3649C271.197 22.0722 271.197 23.133 270.491 23.8403L227.495 66.8645C227.26 67.1002 226.788 67.336 226.317 67.336Z" fill="black"/>
<path d="M260.243 74.9941C259.772 74.9941 259.301 74.8762 258.947 74.5226L247.992 63.5602L237.037 74.5226C236.33 75.2298 235.27 75.2298 234.564 74.5226C233.857 73.8153 233.857 72.7544 234.564 72.0472L246.814 59.7882C247.521 59.081 248.581 59.081 249.288 59.7882L261.539 72.0472C262.246 72.7544 262.246 73.8153 261.539 74.5226C261.068 74.8762 260.714 74.9941 260.243 74.9941Z" fill="black"/>
<path d="M247.639 28.789C247.168 28.789 246.696 28.6711 246.343 28.3175L234.092 16.0585C233.386 15.3513 233.386 14.2904 234.092 13.5832C234.799 12.8759 235.859 12.8759 236.566 13.5832L247.521 24.5455L258.476 13.5832C259.183 12.8759 260.243 12.8759 260.95 13.5832C261.657 14.2904 261.657 15.3513 260.95 16.0585L248.699 28.3175C248.581 28.6711 248.11 28.789 247.639 28.789Z" fill="black"/>
<path d="M247.757 76.1734C246.815 76.1734 245.99 75.3483 245.99 74.4053V13.5821C245.99 12.6391 246.815 11.814 247.757 11.814C248.699 11.814 249.524 12.6391 249.524 13.5821V74.4053C249.524 75.4662 248.699 76.1734 247.757 76.1734Z" fill="black"/>
<path d="M276.97 57.9039C276.499 57.9039 276.028 57.786 275.674 57.4324L263.424 45.1734C262.717 44.4662 262.717 43.4053 263.424 42.6981L275.674 30.4391C276.381 29.7319 277.441 29.7319 278.148 30.4391C278.855 31.1464 278.855 32.2072 278.148 32.9145L267.193 43.8768L278.148 54.8391C278.855 55.5464 278.855 56.6073 278.148 57.3145C277.912 57.6681 277.441 57.9039 276.97 57.9039Z" fill="black"/>
<path d="M218.661 58.141C218.19 58.141 217.718 58.0231 217.365 57.6695C216.658 56.9622 216.658 55.9014 217.365 55.1941L228.32 44.2318L217.365 33.2695C216.658 32.5622 216.658 31.5014 217.365 30.7941C218.072 30.0869 219.132 30.0869 219.839 30.7941L232.09 43.0531C232.796 43.7603 232.796 44.8212 232.09 45.5284L219.839 57.6695C219.485 58.0231 219.014 58.141 218.661 58.141Z" fill="black"/>
<path d="M278.266 45.8815H217.483C216.541 45.8815 215.716 45.0563 215.716 44.1133C215.716 43.1703 216.541 42.3452 217.483 42.3452H278.266C279.208 42.3452 280.033 43.1703 280.033 44.1133C280.033 45.0563 279.208 45.8815 278.266 45.8815Z" fill="black"/>
<path d="M269.313 67.336C268.842 67.336 268.37 67.2181 268.017 66.8645L225.021 23.8403C224.315 23.133 224.315 22.0722 225.021 21.3649C225.728 20.6577 226.788 20.6577 227.495 21.3649L270.491 64.3891C271.197 65.0963 271.197 66.1572 270.491 66.8645C270.255 67.1002 269.784 67.336 269.313 67.336Z" fill="black"/>
<path d="M30.07 53.8961C25.9471 53.8961 22.6488 50.5956 22.6488 46.47C22.6488 42.3444 25.9471 39.0439 30.07 39.0439C34.1928 39.0439 37.4911 42.3444 37.4911 46.47C37.4911 50.5956 34.1928 53.8961 30.07 53.8961ZM30.07 42.4623C27.9496 42.4623 26.1827 44.2304 26.1827 46.3522C26.1827 48.4739 27.9496 50.242 30.07 50.242C32.1903 50.242 33.9572 48.4739 33.9572 46.3522C33.9572 44.2304 32.1903 42.4623 30.07 42.4623Z" fill="black"/>
<path d="M55.6321 73.9352C55.1609 73.9352 54.6897 73.8174 54.3363 73.4637L36.5491 55.5468C35.8423 54.8396 35.8423 53.7787 36.5491 53.0715C37.2559 52.3642 38.3161 52.3642 39.0228 53.0715L56.81 70.8705C57.5168 71.5777 57.5168 72.6386 56.81 73.3459C56.4566 73.6995 56.1033 73.9352 55.6321 73.9352Z" fill="black"/>
<path d="M22.1764 40.4583C21.7052 40.4583 21.234 40.3404 20.8806 39.9868L9.5722 28.6708C8.86542 27.9636 8.86542 26.9027 9.5722 26.1955C10.279 25.4882 11.3391 25.4882 12.0459 26.1955L23.3543 37.5114C24.0611 38.2187 24.0611 39.2795 23.3543 39.9868C23.1187 40.2225 22.6476 40.4583 22.1764 40.4583Z" fill="black"/>
<path d="M29.9515 76.175C29.0091 76.175 28.1846 75.3499 28.1846 74.4069V57.5508C28.1846 56.6078 29.0091 55.7827 29.9515 55.7827C30.8939 55.7827 31.7184 56.6078 31.7184 57.5508V74.4069C31.7184 75.4677 31.0117 76.175 29.9515 76.175Z" fill="black"/>
<path d="M29.9515 37.1575C29.0091 37.1575 28.1846 36.3324 28.1846 35.3894V15.5865C28.1846 14.6435 29.0091 13.8184 29.9515 13.8184C30.8939 13.8184 31.7184 14.6435 31.7184 15.5865V35.5073C31.7184 36.3324 31.0117 37.1575 29.9515 37.1575Z" fill="black"/>
<path d="M60.9325 48.2379H41.025C40.0826 48.2379 39.2581 47.4128 39.2581 46.4698C39.2581 45.5268 40.0826 44.7017 41.025 44.7017H60.9325C61.8749 44.7017 62.6995 45.5268 62.6995 46.4698C62.6995 47.4128 61.8749 48.2379 60.9325 48.2379Z" fill="black"/>
<path d="M18.9968 48.2376L2.50534 48.1197C1.56298 48.1197 0.738403 47.2946 0.738403 46.3516C0.738403 45.4086 1.56298 44.5835 2.50534 44.5835L18.9968 44.7014C19.9392 44.7014 20.7637 45.5265 20.7637 46.4695C20.7637 47.5304 20.0569 48.2376 18.9968 48.2376Z" fill="black"/>
<path d="M37.8439 40.4585C37.3727 40.4585 36.9015 40.3406 36.5481 39.987C35.8414 39.2798 35.8414 38.2189 36.5481 37.5117L59.2828 14.7619C59.9896 14.0546 61.0497 14.0546 61.7565 14.7619C62.4633 15.4691 62.4633 16.53 61.7565 17.2372L39.0219 39.8691C38.7863 40.2228 38.3151 40.4585 37.8439 40.4585Z" fill="black"/>
<path d="M4.3898 73.9355C3.91862 73.9355 3.44743 73.8177 3.09405 73.464C2.38727 72.7568 2.38727 71.6959 3.09405 70.9887L20.8812 53.1896C21.588 52.4824 22.6482 52.4824 23.355 53.1896C24.0617 53.8969 24.0617 54.9577 23.355 55.665L5.68556 73.3462C5.33217 73.6998 4.86099 73.9355 4.3898 73.9355Z" fill="black"/>
<path d="M88.3779 76.1772C88.0245 76.1772 87.6711 76.1772 87.4355 76.1772C79.1898 75.7057 72.4754 68.869 72.1221 60.6178C71.8865 56.1385 73.5356 51.8951 76.5983 48.7124C79.661 45.5298 83.9017 43.7617 88.3779 43.7617H118.062H118.18C122.539 43.9975 126.544 45.8835 129.489 49.1839C132.434 52.3666 133.847 56.61 133.612 60.9714C133.14 69.1047 126.426 75.8236 118.298 76.2951C112.997 76.6487 107.932 74.4091 104.634 70.2835H100.982C97.9194 74.0554 93.3253 76.1772 88.3779 76.1772ZM88.3779 47.1801C84.844 47.1801 81.6635 48.5946 79.1898 51.0699C76.7161 53.5453 75.5381 56.9637 75.6559 60.382C75.8915 66.8651 81.1923 72.1695 87.5533 72.5231C91.9118 72.7588 96.1524 70.755 98.6262 67.2187C98.9795 66.7472 99.4507 66.5115 100.04 66.5115H105.576C106.165 66.5115 106.636 66.7472 106.99 67.2187C109.581 70.755 113.704 72.7588 118.062 72.5231C124.423 72.1695 129.607 66.8651 129.96 60.4999C130.195 57.0815 129.018 53.8989 126.779 51.3057C124.541 48.8303 121.361 47.298 117.945 47.0622L88.3779 47.1801Z" fill="black"/>
<path d="M127.25 50.5969C126.308 50.5969 125.483 49.7717 125.483 48.8287V36.334C125.483 35.6268 125.248 34.9196 124.659 34.4481L110.405 20.3031C108.403 18.2993 105.694 17.1205 102.749 17.1205C99.8038 17.1205 97.0945 18.2993 95.092 20.3031L81.0743 34.4481C80.6031 34.9196 80.2497 35.6268 80.2497 36.334V48.7109C80.2497 49.6539 79.4251 50.479 78.4828 50.479C77.5404 50.479 76.7158 49.6539 76.7158 48.7109V36.4519C76.7158 34.8017 77.3048 33.2693 78.4828 32.0906L92.5005 17.9456C95.2098 15.2345 98.8615 13.7021 102.631 13.7021C102.631 13.7021 102.631 13.7021 102.749 13.7021C106.518 13.7021 110.17 15.2345 112.879 17.8278L127.133 31.9727C128.31 33.1514 129.017 34.8017 129.017 36.4519V48.9466C129.017 49.8896 128.193 50.5969 127.25 50.5969Z" fill="black"/>
<path d="M102.867 17.2398C98.3903 17.2398 94.7386 13.5857 94.7386 9.10648C94.7386 4.62725 98.3903 0.973145 102.867 0.973145C107.343 0.973145 110.994 4.62725 110.994 9.10648C110.994 13.5857 107.343 17.2398 102.867 17.2398ZM102.867 4.50938C100.393 4.50938 98.2725 6.51325 98.2725 9.10648C98.2725 11.6997 100.275 13.7036 102.867 13.7036C105.34 13.7036 107.461 11.6997 107.461 9.10648C107.461 6.51325 105.458 4.50938 102.867 4.50938Z" fill="black"/>
<path d="M82.1346 64.6228C81.6634 64.6228 81.1922 64.505 80.8388 64.1513C80.132 63.4441 80.132 62.3832 80.8388 61.676L88.9667 53.5426C89.6735 52.8354 90.7337 52.8354 91.4404 53.5426C92.1472 54.2499 92.1472 55.3108 91.4404 56.018L83.3125 64.1513C83.0769 64.3871 82.6057 64.6228 82.1346 64.6228Z" fill="black"/>
<path d="M81.5461 58.0247C81.0749 58.0247 80.6037 57.9068 80.2503 57.5532C79.5435 56.846 79.5435 55.7851 80.2503 55.0779L82.6062 52.7204C83.313 52.0131 84.3732 52.0131 85.0799 52.7204C85.7867 53.4276 85.7867 54.4885 85.0799 55.1957L82.724 57.5532C82.3706 57.9068 81.8994 58.0247 81.5461 58.0247Z" fill="black"/>
<path d="M317.611 75.2299H310.896C309.954 75.2299 309.129 74.4048 309.129 73.4618V67.9217H288.515C287.808 67.9217 287.219 67.4502 286.866 66.8608C286.63 66.2715 286.748 65.4463 287.219 64.9748L302.533 48.7082H290.635C289.929 48.7082 289.34 48.2367 288.986 47.6473C288.751 47.0579 288.868 46.2328 289.34 45.7613L306.302 27.7265H296.996C296.29 27.7265 295.583 27.255 295.347 26.6656C295.112 26.0763 295.229 25.2512 295.701 24.7797L312.899 7.56999C313.606 6.86274 314.784 6.86274 315.372 7.56999L332.806 24.5439C333.277 25.0154 333.513 25.8405 333.16 26.4299C332.806 27.0193 332.217 27.4908 331.511 27.4908H322.205L339.167 45.5256C339.638 45.9971 339.756 46.8222 339.521 47.4116C339.285 48.0009 338.578 48.4724 337.872 48.4724H325.856L341.17 64.7391C341.641 65.2106 341.759 66.0357 341.523 66.6251C341.288 67.2145 340.581 67.686 339.874 67.686H319.26V73.2261C319.378 74.4048 318.553 75.2299 317.611 75.2299ZM312.663 71.6937H315.844V66.1536C315.844 65.2106 316.668 64.3855 317.611 64.3855H335.869L320.556 48.1188C320.084 47.6473 319.967 46.8222 320.202 46.2328C320.438 45.6434 321.144 45.1719 321.851 45.1719H333.749L316.786 27.1371C316.315 26.6657 316.197 25.8405 316.433 25.2512C316.668 24.6618 317.375 24.1903 318.082 24.1903H327.27L314.312 11.2241L301.355 24.1903H310.543C311.25 24.1903 311.839 24.6618 312.192 25.2512C312.428 25.8405 312.31 26.6657 311.839 27.1371L294.876 45.1719H306.773C307.48 45.1719 308.069 45.6434 308.423 46.2328C308.658 46.8222 308.54 47.6473 308.069 48.1188L292.756 64.3855H311.014C311.956 64.3855 312.781 65.2106 312.781 66.1536V71.6937H312.663Z" fill="black"/>
<path d="M9.10107 156.093H2.74009C1.91552 156.093 1.32654 155.386 1.32654 154.679V105.761C1.32654 104.936 2.03331 104.346 2.74009 104.346H18.7603C21.4697 104.346 23.9434 104.7 26.1815 105.525C28.4196 106.35 30.3044 107.411 31.9535 108.825C33.4848 110.24 34.7806 112.008 35.6052 114.012C36.4297 116.016 36.9009 118.255 36.9009 120.731C36.9009 123.088 36.4297 125.21 35.6052 127.214C34.7806 129.218 33.4848 130.868 31.9535 132.282C30.3044 133.697 28.4196 134.758 26.1815 135.583C23.9434 136.408 21.4697 136.762 18.7603 136.762H10.5146V154.679C10.6324 155.386 9.92565 156.093 9.10107 156.093ZM18.7603 129.218C20.1739 129.218 21.4697 128.982 22.5298 128.628C23.59 128.157 24.5323 127.567 25.2391 126.86C25.9459 126.153 26.5349 125.21 26.8883 124.149C27.2417 123.088 27.4773 122.027 27.4773 120.849C27.4773 119.552 27.2417 118.373 26.8883 117.312C26.5349 116.252 25.9459 115.309 25.2391 114.483C24.5323 113.658 23.59 113.069 22.412 112.597C21.3519 112.126 20.0561 111.89 18.6426 111.89H10.3968V129.218H18.7603V129.218Z" fill="black"/>
<path d="M61.2848 105.761V154.561C61.2848 155.386 60.578 155.975 59.8712 155.975H53.5102C52.6857 155.975 52.0967 155.268 52.0967 154.561V105.761C52.0967 104.936 52.8035 104.346 53.5102 104.346H59.8712C60.578 104.346 61.2848 105.053 61.2848 105.761Z" fill="black"/>
<path d="M341.286 105.761V154.561C341.286 155.386 340.579 155.975 339.872 155.975H333.511C332.687 155.975 332.098 155.268 332.098 154.561V105.761C332.098 104.936 332.804 104.346 333.511 104.346H339.872C340.697 104.346 341.286 105.053 341.286 105.761Z" fill="black"/>
<path d="M101.218 112.008V154.679C101.218 155.504 100.511 156.093 99.8039 156.093H93.443C92.6184 156.093 92.0294 155.386 92.0294 154.679V112.008H77.6583C76.8337 112.008 76.2448 111.301 76.2448 110.594V105.879C76.2448 105.054 76.9515 104.464 77.6583 104.464H115.706C116.531 104.464 117.12 105.172 117.12 105.879V110.594C117.12 111.419 116.413 112.008 115.706 112.008H101.218Z" fill="black"/>
<path d="M139.737 133.108V148.431H163.178C164.003 148.431 164.592 149.139 164.592 149.846V154.443C164.592 155.268 163.885 155.857 163.178 155.857H131.962C131.138 155.857 130.549 155.15 130.549 154.443V105.761C130.549 104.936 131.255 104.346 131.962 104.346H163.06C163.885 104.346 164.474 105.053 164.474 105.761V110.476C164.474 111.301 163.767 111.89 163.06 111.89H139.737V125.681H159.527C160.351 125.681 160.94 126.389 160.94 127.096V131.575C160.94 132.4 160.233 132.99 159.527 132.99H139.737V133.108Z" fill="black"/>
<path d="M188.858 136.408V154.679C188.858 155.504 188.151 156.093 187.444 156.093H181.083C180.259 156.093 179.67 155.386 179.67 154.679V105.761C179.67 104.936 180.377 104.346 181.083 104.346H196.515C199.224 104.346 201.815 104.7 204.054 105.407C206.292 106.114 208.294 107.057 209.943 108.354C211.593 109.651 212.888 111.301 213.713 113.187C214.655 115.073 215.009 117.43 215.009 120.024C215.009 121.792 214.773 123.442 214.302 124.974C213.831 126.389 213.242 127.685 212.417 128.864C211.592 130.043 210.532 131.104 209.472 131.929C208.294 132.754 206.998 133.579 205.585 134.168L216.422 155.15C216.658 155.622 216.304 156.093 215.833 156.093H207.705C207.116 156.093 206.645 155.739 206.409 155.268L196.986 136.408H188.858V136.408ZM196.515 128.864C198.046 128.864 199.342 128.628 200.52 128.157C201.698 127.685 202.758 127.096 203.465 126.271C204.171 125.564 204.643 124.738 204.996 123.795C205.349 122.852 205.585 121.674 205.585 120.495C205.585 119.081 205.349 117.784 204.878 116.723C204.407 115.662 203.818 114.719 202.993 114.012C202.169 113.305 201.226 112.833 200.166 112.48C199.106 112.126 197.81 111.89 196.397 111.89H188.74V128.864H196.515V128.864Z" fill="black"/>
<path d="M255.53 139.827C255.176 139.002 254.47 138.176 253.645 137.469C252.82 136.762 251.76 136.173 250.465 135.583C249.169 134.994 247.755 134.522 245.988 134.051C243.397 133.344 240.923 132.401 238.803 131.34C236.682 130.279 234.915 129.1 233.502 127.804C232.088 126.507 231.028 125.092 230.204 123.442C229.497 121.792 229.026 120.024 229.026 118.02C229.026 115.898 229.497 113.894 230.439 112.126C231.382 110.358 232.677 108.826 234.327 107.647C235.976 106.35 237.86 105.407 239.981 104.818C242.101 104.111 244.457 103.875 246.931 103.875C249.522 103.875 251.996 104.229 254.116 105.054C256.354 105.879 258.239 106.94 259.888 108.354C261.537 109.769 262.715 111.419 263.658 113.305C264.364 114.837 264.836 116.37 264.953 118.02C265.071 118.845 264.364 119.67 263.54 119.67H257.886C256.59 119.67 256.001 119.199 255.883 118.491C255.765 117.666 255.53 116.959 255.294 116.37C254.823 115.309 254.352 114.484 253.527 113.776C252.703 113.069 251.76 112.48 250.7 112.008C249.64 111.537 248.344 111.419 246.813 111.419C245.517 111.419 244.339 111.537 243.279 111.89C242.219 112.244 241.276 112.716 240.57 113.305C239.863 113.894 239.274 114.602 238.803 115.545C238.449 116.37 238.214 117.313 238.214 118.374C238.214 119.434 238.449 120.377 239.038 121.32C239.627 122.146 240.334 122.853 241.276 123.56C242.219 124.267 243.397 124.857 244.693 125.328C245.988 125.8 247.402 126.271 248.933 126.743C250.7 127.214 252.467 127.921 254.116 128.629C255.765 129.336 257.297 130.279 258.71 131.222C260.595 132.636 262.244 134.404 263.304 136.29C264.482 138.294 265.071 140.534 265.071 143.127C265.071 145.367 264.6 147.371 263.658 149.139C262.715 150.907 261.42 152.321 259.77 153.618C258.121 154.797 256.237 155.74 254.116 156.329C251.878 156.919 249.522 157.272 247.048 157.272C244.457 157.272 241.983 156.919 239.51 156.093C237.036 155.268 234.915 154.207 233.031 152.675C231.264 151.261 229.968 149.492 228.908 147.606C228.083 146.074 227.612 144.306 227.494 142.42C227.377 141.595 228.083 140.77 228.908 140.77H235.269C235.976 140.77 236.565 141.241 236.682 141.948C236.8 143.009 237.036 143.952 237.507 144.777C238.096 145.956 238.803 146.899 239.745 147.606C240.687 148.314 241.748 148.903 243.043 149.257C244.339 149.61 245.753 149.846 247.166 149.846C248.462 149.846 249.64 149.728 250.7 149.375C251.76 149.021 252.703 148.667 253.409 148.078C254.116 147.489 254.705 146.781 255.176 145.956C255.648 145.131 255.765 144.188 255.765 143.245C256.119 141.595 255.883 140.652 255.53 139.827Z" fill="black"/>
<path d="M289.926 140.416V154.679C289.926 155.504 289.22 156.093 288.513 156.093H282.034C281.21 156.093 280.621 155.386 280.621 154.679V105.761C280.621 104.936 281.327 104.346 282.034 104.346H288.513C289.338 104.346 289.926 105.053 289.926 105.761V128.275L307.36 104.936C307.596 104.582 308.067 104.346 308.538 104.346H317.726C318.315 104.346 318.551 104.936 318.315 105.407L298.761 130.75L319.258 155.032C319.493 155.504 319.258 156.093 318.669 156.093H309.716C309.245 156.093 308.774 155.857 308.538 155.386L290.044 134.522L289.926 140.416Z" fill="black"/>
</svg>
