<svg width="342" height="157" viewBox="0 0 342 157" fill="none" xmlns="http://www.w3.org/2000/svg">
<path d="M172.35 75.4698C171.879 75.4698 171.525 75.3519 171.172 74.9983C170.112 74.0553 145.964 51.8949 139.249 41.8756C137.247 38.9287 136.187 35.2746 136.187 31.5026C136.187 20.8939 144.668 12.2891 155.152 12.2891C162.691 12.2891 169.287 16.7683 172.35 23.3693C175.53 17.004 182.009 12.7606 189.313 12.7606C199.914 12.7606 208.278 21.0118 208.278 31.5026C208.278 35.9818 207.335 39.4002 205.333 42.2292C197.794 52.8379 174.588 74.1732 173.528 74.9983C173.292 75.3519 172.821 75.4698 172.35 75.4698ZM155.269 15.8253C146.788 15.8253 139.838 22.8978 139.838 31.5026C139.838 34.6852 140.663 37.5142 142.312 39.9896C147.966 48.4765 167.402 66.7471 172.468 71.3442C177.415 66.7471 196.262 49.1838 202.506 40.2253C204.155 37.8678 204.862 35.2746 204.862 31.5026C204.862 23.0156 198.029 16.2968 189.43 16.2968C181.656 16.2968 175.059 22.1905 174.117 29.9702C173.999 30.9132 173.292 31.5026 172.35 31.5026C171.408 31.5026 170.701 30.7954 170.583 29.8524C169.758 21.9548 163.162 15.8253 155.269 15.8253Z" fill="white"/>
<path d="M226.064 66.6294C225.593 66.6294 225.122 66.5115 224.768 66.1579C224.062 65.4507 224.062 64.3898 224.768 63.6826L267.764 20.6584C268.471 19.9511 269.531 19.9511 270.238 20.6584C270.944 21.3656 270.944 22.4265 270.238 23.1337L227.242 66.1579C227.006 66.3937 226.535 66.6294 226.064 66.6294Z" fill="white"/>
<path d="M259.99 74.2875C259.519 74.2875 259.048 74.1696 258.694 73.816L247.739 62.8537L236.784 73.816C236.077 74.5233 235.017 74.5233 234.31 73.816C233.604 73.1088 233.604 72.0479 234.31 71.3406L246.561 59.0817C247.268 58.3745 248.328 58.3745 249.035 59.0817L261.286 71.3406C261.993 72.0479 261.993 73.1088 261.286 73.816C260.815 74.1696 260.461 74.2875 259.99 74.2875Z" fill="white"/>
<path d="M247.386 28.0824C246.915 28.0824 246.443 27.9646 246.09 27.6109L233.839 15.352C233.133 14.6447 233.133 13.5839 233.839 12.8766C234.546 12.1694 235.606 12.1694 236.313 12.8766L247.268 23.839L258.223 12.8766C258.93 12.1694 259.99 12.1694 260.697 12.8766C261.404 13.5839 261.404 14.6447 260.697 15.352L248.446 27.6109C248.328 27.9646 247.857 28.0824 247.386 28.0824Z" fill="white"/>
<path d="M247.504 75.4669C246.562 75.4669 245.737 74.6418 245.737 73.6988V12.8755C245.737 11.9325 246.562 11.1074 247.504 11.1074C248.446 11.1074 249.271 11.9325 249.271 12.8755V73.6988C249.271 74.7597 248.446 75.4669 247.504 75.4669Z" fill="white"/>
<path d="M276.717 57.1973C276.246 57.1973 275.775 57.0795 275.421 56.7258L263.17 44.4669C262.464 43.7596 262.464 42.6988 263.17 41.9915L275.421 29.7326C276.128 29.0253 277.188 29.0253 277.895 29.7326C278.602 30.4398 278.602 31.5007 277.895 32.2079L266.94 43.1703L277.895 54.1326C278.602 54.8398 278.602 55.9007 277.895 56.608C277.659 56.9616 277.188 57.1973 276.717 57.1973Z" fill="white"/>
<path d="M218.408 57.4344C217.937 57.4344 217.465 57.3166 217.112 56.9629C216.405 56.2557 216.405 55.1948 217.112 54.4876L228.067 43.5253L217.112 32.5629C216.405 31.8557 216.405 30.7948 217.112 30.0876C217.819 29.3803 218.879 29.3803 219.586 30.0876L231.836 42.3465C232.543 43.0538 232.543 44.1146 231.836 44.8219L219.586 56.9629C219.232 57.3166 218.761 57.4344 218.408 57.4344Z" fill="white"/>
<path d="M278.013 45.1749H217.23C216.288 45.1749 215.463 44.3498 215.463 43.4068C215.463 42.4638 216.288 41.6387 217.23 41.6387H278.013C278.955 41.6387 279.78 42.4638 279.78 43.4068C279.78 44.3498 278.955 45.1749 278.013 45.1749Z" fill="white"/>
<path d="M269.06 66.6294C268.588 66.6294 268.117 66.5115 267.764 66.1579L224.768 23.1337C224.062 22.4265 224.062 21.3656 224.768 20.6584C225.475 19.9511 226.535 19.9511 227.242 20.6584L270.238 63.6826C270.944 64.3898 270.944 65.4507 270.238 66.1579C270.002 66.3937 269.531 66.6294 269.06 66.6294Z" fill="white"/>
<path d="M29.8169 53.1896C25.694 53.1896 22.3958 49.8891 22.3958 45.7635C22.3958 41.6379 25.694 38.3374 29.8169 38.3374C33.9398 38.3374 37.2381 41.6379 37.2381 45.7635C37.2381 49.8891 33.9398 53.1896 29.8169 53.1896ZM29.8169 41.7558C27.6966 41.7558 25.9296 43.5239 25.9296 45.6456C25.9296 47.7674 27.6966 49.5355 29.8169 49.5355C31.9372 49.5355 33.7042 47.7674 33.7042 45.6456C33.7042 43.5239 31.9372 41.7558 29.8169 41.7558Z" fill="white"/>
<path d="M55.379 73.2287C54.9078 73.2287 54.4367 73.1108 54.0833 72.7572L36.2961 54.8403C35.5893 54.133 35.5893 53.0722 36.2961 52.3649C37.0028 51.6577 38.063 51.6577 38.7698 52.3649L56.557 70.1639C57.2638 70.8712 57.2638 71.9321 56.557 72.6393C56.2036 72.9929 55.8502 73.2287 55.379 73.2287Z" fill="white"/>
<path d="M21.9233 39.7517C21.4521 39.7517 20.9809 39.6339 20.6276 39.2802L9.31914 27.9643C8.61237 27.257 8.61237 26.1962 9.31914 25.4889C10.0259 24.7817 11.0861 24.7817 11.7929 25.4889L23.1013 36.8049C23.8081 37.5121 23.8081 38.573 23.1013 39.2802C22.8657 39.516 22.3945 39.7517 21.9233 39.7517Z" fill="white"/>
<path d="M29.6985 75.4685C28.7561 75.4685 27.9315 74.6433 27.9315 73.7003V56.8443C27.9315 55.9013 28.7561 55.0762 29.6985 55.0762C30.6408 55.0762 31.4654 55.9013 31.4654 56.8443V73.7003C31.4654 74.7612 30.7586 75.4685 29.6985 75.4685Z" fill="white"/>
<path d="M29.6985 36.451C28.7561 36.451 27.9315 35.6258 27.9315 34.6828V14.8799C27.9315 13.9369 28.7561 13.1118 29.6985 13.1118C30.6408 13.1118 31.4654 13.9369 31.4654 14.8799V34.8007C31.4654 35.6258 30.7586 36.451 29.6985 36.451Z" fill="white"/>
<path d="M60.6795 47.5314H40.7719C39.8296 47.5314 39.005 46.7062 39.005 45.7632C39.005 44.8202 39.8296 43.9951 40.7719 43.9951H60.6795C61.6218 43.9951 62.4464 44.8202 62.4464 45.7632C62.4464 46.7062 61.6218 47.5314 60.6795 47.5314Z" fill="white"/>
<path d="M18.7437 47.5311L2.25229 47.4132C1.30992 47.4132 0.485352 46.5881 0.485352 45.6451C0.485352 44.7021 1.30992 43.877 2.25229 43.877L18.7437 43.9948C19.6861 43.9948 20.5107 44.8199 20.5107 45.7629C20.5107 46.8238 19.8039 47.5311 18.7437 47.5311Z" fill="white"/>
<path d="M37.5909 39.752C37.1197 39.752 36.6485 39.6341 36.2951 39.2805C35.5883 38.5732 35.5883 37.5124 36.2951 36.8051L59.0297 14.0553C59.7365 13.3481 60.7967 13.3481 61.5034 14.0553C62.2102 14.7626 62.2102 15.8235 61.5034 16.5307L38.7688 39.1626C38.5332 39.5162 38.062 39.752 37.5909 39.752Z" fill="white"/>
<path d="M4.13675 73.229C3.66557 73.229 3.19438 73.1111 2.841 72.7575C2.13422 72.0502 2.13422 70.9894 2.841 70.2821L20.6282 52.4831C21.335 51.7758 22.3951 51.7758 23.1019 52.4831C23.8087 53.1903 23.8087 54.2512 23.1019 54.9584L5.43251 72.6396C5.07912 72.9932 4.60793 73.229 4.13675 73.229Z" fill="white"/>
<path d="M88.1249 75.4706C87.7715 75.4706 87.4181 75.4706 87.1825 75.4706C78.9368 74.9991 72.2224 68.1624 71.869 59.9112C71.6334 55.432 73.2826 51.1885 76.3453 48.0059C79.408 44.8233 83.6486 43.0552 88.1249 43.0552H117.809H117.927C122.286 43.2909 126.291 45.1769 129.236 48.4774C132.181 51.66 133.594 55.9035 133.359 60.2648C132.887 68.3982 126.173 75.117 118.045 75.5885C112.744 75.9421 107.679 73.7025 104.381 69.5769H100.729C97.6663 73.3489 93.0723 75.4706 88.1249 75.4706ZM88.1249 46.4735C84.591 46.4735 81.4105 47.888 78.9368 50.3634C76.463 52.8388 75.2851 56.2571 75.4029 59.6755C75.6385 66.1586 80.9393 71.4629 87.3003 71.8165C91.6587 72.0523 95.8994 70.0484 98.3731 66.5122C98.7265 66.0407 99.1977 65.8049 99.7867 65.8049H105.323C105.912 65.8049 106.383 66.0407 106.737 66.5122C109.328 70.0484 113.451 72.0523 117.809 71.8165C124.17 71.4629 129.353 66.1586 129.707 59.7933C129.942 56.375 128.764 53.1924 126.526 50.5991C124.288 48.1238 121.108 46.5914 117.692 46.3557L88.1249 46.4735Z" fill="white"/>
<path d="M126.997 49.8903C126.055 49.8903 125.23 49.0652 125.23 48.1222V35.6275C125.23 34.9203 124.995 34.213 124.406 33.7415L110.152 19.5966C108.15 17.5927 105.441 16.414 102.496 16.414C99.5508 16.414 96.8415 17.5927 94.8389 19.5966L80.8212 33.7415C80.35 34.213 79.9966 34.9203 79.9966 35.6275V48.0043C79.9966 48.9473 79.1721 49.7724 78.2297 49.7724C77.2873 49.7724 76.4628 48.9473 76.4628 48.0043V35.7454C76.4628 34.0951 77.0517 32.5628 78.2297 31.384L92.2474 17.2391C94.9567 14.528 98.6084 12.9956 102.378 12.9956C102.378 12.9956 102.378 12.9956 102.496 12.9956C106.265 12.9956 109.917 14.528 112.626 17.1212L126.879 31.2661C128.057 32.4449 128.764 34.0951 128.764 35.7454V48.2401C128.764 49.1831 127.94 49.8903 126.997 49.8903Z" fill="white"/>
<path d="M102.614 16.5333C98.1373 16.5333 94.4856 12.8792 94.4856 8.39994C94.4856 3.92071 98.1373 0.266602 102.614 0.266602C107.09 0.266602 110.741 3.92071 110.741 8.39994C110.741 12.8792 107.09 16.5333 102.614 16.5333ZM102.614 3.80284C100.14 3.80284 98.0195 5.8067 98.0195 8.39994C98.0195 10.9932 100.022 12.997 102.614 12.997C105.087 12.997 107.208 10.9932 107.208 8.39994C107.208 5.8067 105.205 3.80284 102.614 3.80284Z" fill="white"/>
<path d="M81.8815 63.9163C81.4103 63.9163 80.9391 63.7984 80.5857 63.4448C79.879 62.7376 79.879 61.6767 80.5857 60.9694L88.7137 52.8361C89.4204 52.1289 90.4806 52.1289 91.1874 52.8361C91.8942 53.5433 91.8942 54.6042 91.1874 55.3115L83.0595 63.4448C82.8239 63.6806 82.3527 63.9163 81.8815 63.9163Z" fill="white"/>
<path d="M81.293 57.3182C80.8218 57.3182 80.3506 57.2003 79.9972 56.8467C79.2905 56.1394 79.2905 55.0786 79.9972 54.3713L82.3532 52.0138C83.0599 51.3066 84.1201 51.3066 84.8269 52.0138C85.5337 52.7211 85.5337 53.7819 84.8269 54.4892L82.471 56.8467C82.1176 57.2003 81.6464 57.3182 81.293 57.3182Z" fill="white"/>
<path d="M317.358 74.5234H310.643C309.701 74.5234 308.876 73.6983 308.876 72.7553V67.2152H288.262C287.555 67.2152 286.966 66.7437 286.613 66.1543C286.377 65.5649 286.495 64.7398 286.966 64.2683L302.28 48.0016H290.382C289.676 48.0016 289.087 47.5301 288.733 46.9408C288.498 46.3514 288.615 45.5263 289.087 45.0548L306.049 27.02H296.743C296.037 27.02 295.33 26.5485 295.094 25.9591C294.859 25.3697 294.976 24.5446 295.448 24.0731L312.646 6.86344C313.353 6.1562 314.531 6.1562 315.12 6.86344L332.553 23.8374C333.025 24.3089 333.26 25.134 332.907 25.7234C332.553 26.3127 331.964 26.7842 331.258 26.7842H321.952L338.914 44.819C339.386 45.2905 339.503 46.1156 339.268 46.705C339.032 47.2944 338.325 47.7659 337.619 47.7659H325.603L340.917 64.0326C341.388 64.5041 341.506 65.3292 341.27 65.9186C341.035 66.5079 340.328 66.9794 339.621 66.9794H319.007V72.5195C319.125 73.6983 318.3 74.5234 317.358 74.5234ZM312.41 70.9872H315.591V65.4471C315.591 64.5041 316.415 63.6789 317.358 63.6789H335.616L320.303 47.4123C319.831 46.9408 319.714 46.1156 319.949 45.5263C320.185 44.9369 320.892 44.4654 321.598 44.4654H333.496L316.533 26.4306C316.062 25.9591 315.944 25.134 316.18 24.5446C316.415 23.9552 317.122 23.4837 317.829 23.4837H327.017L314.059 10.5176L301.102 23.4837H310.29C310.997 23.4837 311.586 23.9552 311.939 24.5446C312.175 25.134 312.057 25.9591 311.586 26.4306L294.623 44.4654H306.52C307.227 44.4654 307.816 44.9369 308.17 45.5263C308.405 46.1156 308.287 46.9408 307.816 47.4123L292.503 63.6789H310.761C311.703 63.6789 312.528 64.5041 312.528 65.4471V70.9872H312.41Z" fill="white"/>
<path d="M8.84802 155.387H2.48704C1.66247 155.387 1.07349 154.679 1.07349 153.972V105.054C1.07349 104.229 1.78026 103.64 2.48704 103.64H18.5073C21.2166 103.64 23.6903 103.993 25.9284 104.818C28.1666 105.644 30.0513 106.704 31.7004 108.119C33.2318 109.533 34.5276 111.301 35.3521 113.305C36.1767 115.309 36.6479 117.549 36.6479 120.024C36.6479 122.382 36.1767 124.503 35.3521 126.507C34.5276 128.511 33.2318 130.161 31.7004 131.576C30.0513 132.99 28.1666 134.051 25.9284 134.876C23.6903 135.702 21.2166 136.055 18.5073 136.055H10.2616V153.972C10.3794 154.679 9.67259 155.387 8.84802 155.387ZM18.5073 128.511C19.9208 128.511 21.2166 128.275 22.2768 127.922C23.3369 127.45 24.2793 126.861 24.9861 126.154C25.6929 125.446 26.2818 124.503 26.6352 123.443C26.9886 122.382 27.2242 121.321 27.2242 120.142C27.2242 118.845 26.9886 117.667 26.6352 116.606C26.2818 115.545 25.6929 114.602 24.9861 113.777C24.2793 112.952 23.3369 112.362 22.159 111.891C21.0988 111.419 19.8031 111.184 18.3895 111.184H10.1438V128.511H18.5073V128.511Z" fill="white"/>
<path d="M61.0317 105.054V153.854C61.0317 154.679 60.3249 155.269 59.6182 155.269H53.2572C52.4326 155.269 51.8436 154.561 51.8436 153.854V105.054C51.8436 104.229 52.5504 103.64 53.2572 103.64H59.6182C60.3249 103.64 61.0317 104.347 61.0317 105.054Z" fill="white"/>
<path d="M341.033 105.054V153.854C341.033 154.679 340.326 155.269 339.619 155.269H333.258C332.433 155.269 331.844 154.561 331.844 153.854V105.054C331.844 104.229 332.551 103.64 333.258 103.64H339.619C340.444 103.64 341.033 104.347 341.033 105.054Z" fill="white"/>
<path d="M100.964 111.302V153.972C100.964 154.797 100.258 155.387 99.5509 155.387H93.1899C92.3653 155.387 91.7764 154.68 91.7764 153.972V111.302H77.4053C76.5807 111.302 75.9917 110.595 75.9917 109.887V105.172C75.9917 104.347 76.6985 103.758 77.4053 103.758H115.453C116.278 103.758 116.867 104.465 116.867 105.172V109.887C116.867 110.712 116.16 111.302 115.453 111.302H100.964Z" fill="white"/>
<path d="M139.484 132.401V147.725H162.925C163.75 147.725 164.339 148.432 164.339 149.139V153.736C164.339 154.561 163.632 155.151 162.925 155.151H131.709C130.885 155.151 130.296 154.444 130.296 153.736V105.054C130.296 104.229 131.002 103.64 131.709 103.64H162.807C163.632 103.64 164.221 104.347 164.221 105.054V109.769C164.221 110.594 163.514 111.184 162.807 111.184H139.484V124.975H159.273C160.098 124.975 160.687 125.682 160.687 126.389V130.869C160.687 131.694 159.98 132.283 159.273 132.283H139.484V132.401Z" fill="white"/>
<path d="M188.605 135.702V153.972C188.605 154.797 187.898 155.387 187.191 155.387H180.83C180.006 155.387 179.417 154.679 179.417 153.972V105.054C179.417 104.229 180.124 103.64 180.83 103.64H196.262C198.971 103.64 201.562 103.993 203.801 104.701C206.039 105.408 208.041 106.351 209.69 107.647C211.339 108.944 212.635 110.594 213.46 112.48C214.402 114.366 214.756 116.724 214.756 119.317C214.756 121.085 214.52 122.735 214.049 124.268C213.578 125.682 212.989 126.979 212.164 128.158C211.339 129.336 210.279 130.397 209.219 131.222C208.041 132.047 206.745 132.873 205.332 133.462L216.169 154.444C216.405 154.915 216.051 155.387 215.58 155.387H207.452C206.863 155.387 206.392 155.033 206.156 154.561L196.733 135.702H188.605V135.702ZM196.262 128.158C197.793 128.158 199.089 127.922 200.267 127.45C201.445 126.979 202.505 126.389 203.212 125.564C203.918 124.857 204.389 124.032 204.743 123.089C205.096 122.146 205.332 120.967 205.332 119.788C205.332 118.374 205.096 117.077 204.625 116.016C204.154 114.956 203.565 114.013 202.74 113.305C201.916 112.598 200.973 112.127 199.913 111.773C198.853 111.419 197.557 111.184 196.144 111.184H188.487V128.158H196.262V128.158Z" fill="white"/>
<path d="M255.277 139.12C254.923 138.295 254.217 137.47 253.392 136.763C252.568 136.055 251.507 135.466 250.212 134.877C248.916 134.287 247.502 133.816 245.735 133.344C243.144 132.637 240.67 131.694 238.55 130.633C236.429 129.572 234.663 128.394 233.249 127.097C231.835 125.8 230.775 124.386 229.951 122.736C229.244 121.085 228.773 119.317 228.773 117.313C228.773 115.192 229.244 113.188 230.186 111.42C231.129 109.652 232.424 108.119 234.074 106.94C235.723 105.644 237.607 104.701 239.728 104.111C241.848 103.404 244.204 103.168 246.678 103.168C249.269 103.168 251.743 103.522 253.863 104.347C256.101 105.172 257.986 106.233 259.635 107.648C261.284 109.062 262.462 110.712 263.405 112.598C264.112 114.131 264.583 115.663 264.701 117.313C264.818 118.139 264.112 118.964 263.287 118.964H257.633C256.337 118.964 255.748 118.492 255.63 117.785C255.512 116.96 255.277 116.253 255.041 115.663C254.57 114.602 254.099 113.777 253.274 113.07C252.45 112.363 251.507 111.773 250.447 111.302C249.387 110.83 248.091 110.712 246.56 110.712C245.264 110.712 244.086 110.83 243.026 111.184C241.966 111.538 241.024 112.009 240.317 112.598C239.61 113.188 239.021 113.895 238.55 114.838C238.196 115.663 237.961 116.606 237.961 117.667C237.961 118.728 238.196 119.671 238.785 120.614C239.374 121.439 240.081 122.146 241.024 122.853C241.966 123.561 243.144 124.15 244.44 124.622C245.735 125.093 247.149 125.565 248.68 126.036C250.447 126.508 252.214 127.215 253.863 127.922C255.512 128.629 257.044 129.572 258.457 130.515C260.342 131.93 261.991 133.698 263.051 135.584C264.229 137.588 264.818 139.827 264.818 142.421C264.818 144.66 264.347 146.664 263.405 148.432C262.462 150.2 261.167 151.615 259.517 152.911C257.868 154.09 255.984 155.033 253.863 155.623C251.625 156.212 249.269 156.566 246.796 156.566C244.204 156.566 241.73 156.212 239.257 155.387C236.783 154.562 234.663 153.501 232.778 151.968C231.011 150.554 229.715 148.786 228.655 146.9C227.83 145.368 227.359 143.599 227.241 141.713C227.124 140.888 227.83 140.063 228.655 140.063H235.016C235.723 140.063 236.312 140.535 236.429 141.242C236.547 142.303 236.783 143.246 237.254 144.071C237.843 145.25 238.55 146.193 239.492 146.9C240.435 147.607 241.495 148.196 242.79 148.55C244.086 148.904 245.5 149.139 246.913 149.139C248.209 149.139 249.387 149.022 250.447 148.668C251.507 148.314 252.45 147.961 253.157 147.371C253.863 146.782 254.452 146.075 254.923 145.25C255.395 144.425 255.512 143.482 255.512 142.539C255.866 140.888 255.63 139.945 255.277 139.12Z" fill="white"/>
<path d="M289.674 139.709V153.972C289.674 154.797 288.967 155.387 288.26 155.387H281.781C280.957 155.387 280.368 154.679 280.368 153.972V105.054C280.368 104.229 281.074 103.64 281.781 103.64H288.26C289.085 103.64 289.674 104.347 289.674 105.054V127.568L307.107 104.229C307.343 103.875 307.814 103.64 308.285 103.64H317.473C318.062 103.64 318.298 104.229 318.062 104.701L298.508 130.044L319.005 154.326C319.24 154.797 319.005 155.387 318.416 155.387H309.463C308.992 155.387 308.521 155.151 308.285 154.679L289.791 133.816L289.674 139.709Z" fill="white"/>
</svg>
