<svg width="240" height="176" viewBox="0 0 240 176" fill="none" xmlns="http://www.w3.org/2000/svg">
<path d="M37.6574 175.31H34.459C34.069 175.31 33.757 174.998 33.757 174.608V149.863C33.757 149.472 34.069 149.16 34.459 149.16H42.5719C43.976 149.16 45.2242 149.394 46.3163 149.785C47.4084 150.175 48.4225 150.721 49.2026 151.502C49.9826 152.204 50.6067 153.063 51.0748 154.078C51.5428 155.093 51.7768 156.264 51.7768 157.513C51.7768 158.683 51.5428 159.776 51.0748 160.791C50.6067 161.806 49.9826 162.664 49.2026 163.367C48.4225 164.07 47.4084 164.616 46.3163 165.006C45.2242 165.397 43.898 165.631 42.5719 165.631H38.4374V174.686C38.3594 174.998 38.0474 175.31 37.6574 175.31ZM42.4939 161.65C43.1959 161.65 43.898 161.572 44.4441 161.337C44.9901 161.103 45.4582 160.791 45.8482 160.401C46.2383 160.01 46.5503 159.542 46.7063 159.074C46.8623 158.527 47.0183 157.981 47.0183 157.434C47.0183 156.81 46.9403 156.186 46.7063 155.639C46.5503 155.093 46.2383 154.624 45.8482 154.234C45.4582 153.844 44.9901 153.531 44.4441 153.297C43.898 153.063 43.2739 152.907 42.4939 152.907H38.3594V161.65H42.4939Z" fill="black"/>
<path d="M64.1021 149.785V174.53C64.1021 174.92 63.7901 175.232 63.4 175.232H60.2017C59.8117 175.232 59.4996 174.92 59.4996 174.53V149.785C59.4996 149.394 59.8117 149.082 60.2017 149.082H63.4C63.7121 149.082 64.1021 149.394 64.1021 149.785Z" fill="black"/>
<path d="M206.311 149.785V174.53C206.311 174.92 205.999 175.232 205.609 175.232H202.41C202.02 175.232 201.708 174.92 201.708 174.53V149.785C201.708 149.394 202.02 149.082 202.41 149.082H205.609C205.921 149.082 206.311 149.394 206.311 149.785Z" fill="black"/>
<path d="M84.384 152.907V174.53C84.384 174.92 84.072 175.232 83.6819 175.232H80.4836C80.0936 175.232 79.7815 174.92 79.7815 174.53V152.907H72.5268C72.1367 152.907 71.8247 152.595 71.8247 152.204V149.785C71.8247 149.394 72.1367 149.082 72.5268 149.082H91.8728C92.2628 149.082 92.5749 149.394 92.5749 149.785V152.204C92.5749 152.595 92.2628 152.907 91.8728 152.907H84.384Z" fill="black"/>
<path d="M103.886 163.679V171.485H115.743C116.133 171.485 116.445 171.797 116.445 172.188V174.53C116.445 174.92 116.133 175.232 115.743 175.232H99.8298C99.4397 175.232 99.1277 174.92 99.1277 174.53V149.785C99.1277 149.394 99.4397 149.082 99.8298 149.082H115.665C116.055 149.082 116.367 149.394 116.367 149.785V152.204C116.367 152.595 116.055 152.907 115.665 152.907H103.808V159.932H113.871C114.261 159.932 114.573 160.245 114.573 160.635V162.899C114.573 163.289 114.261 163.601 113.871 163.601H103.886V163.679Z" fill="black"/>
<path d="M128.849 165.319V174.608C128.849 174.998 128.537 175.31 128.147 175.31H124.948C124.558 175.31 124.246 174.998 124.246 174.608V149.863C124.246 149.472 124.558 149.16 124.948 149.16H132.749C134.153 149.16 135.401 149.316 136.572 149.707C137.742 150.019 138.756 150.565 139.536 151.19C140.394 151.814 141.018 152.673 141.486 153.61C141.954 154.624 142.188 155.717 142.188 157.044C142.188 157.981 142.11 158.761 141.876 159.542C141.642 160.323 141.33 160.947 140.94 161.494C140.472 162.118 140.004 162.586 139.38 163.055C138.834 163.523 138.132 163.913 137.43 164.226L142.968 174.842C143.046 175.076 142.89 175.31 142.656 175.31H138.522C138.21 175.31 137.976 175.154 137.898 174.92L133.139 165.319H128.849V165.319ZM132.749 161.494C133.529 161.494 134.231 161.416 134.777 161.181C135.401 160.947 135.87 160.635 136.338 160.245C136.65 159.932 136.962 159.464 137.118 158.996C137.274 158.527 137.43 157.903 137.43 157.278C137.43 156.576 137.352 155.951 137.118 155.327C136.884 154.78 136.572 154.312 136.104 153.922C135.714 153.61 135.245 153.297 134.621 153.141C134.075 152.985 133.451 152.907 132.671 152.907H128.771V161.494H132.749Z" fill="black"/>
<path d="M162.704 167.035C162.47 166.567 162.158 166.177 161.768 165.786C161.3 165.474 160.832 165.084 160.13 164.85C159.506 164.538 158.726 164.303 157.868 164.069C156.542 163.679 155.293 163.211 154.279 162.742C153.187 162.196 152.329 161.571 151.627 160.947C150.925 160.322 150.379 159.542 149.989 158.683C149.599 157.824 149.443 156.966 149.443 155.951C149.443 154.858 149.677 153.843 150.145 152.907C150.613 151.97 151.237 151.267 152.095 150.643C152.875 150.018 153.889 149.55 154.981 149.16C156.074 148.848 157.244 148.691 158.492 148.691C159.818 148.691 161.066 148.926 162.158 149.316C163.25 149.706 164.264 150.253 165.044 150.955C165.825 151.658 166.527 152.516 166.995 153.531C167.385 154.312 167.541 155.092 167.619 155.951C167.697 156.419 167.307 156.81 166.917 156.81H164.03C163.406 156.81 163.094 156.575 163.016 156.185C162.938 155.795 162.86 155.405 162.704 155.092C162.47 154.546 162.236 154.156 161.846 153.765C161.456 153.375 160.988 153.063 160.442 152.907C159.896 152.672 159.194 152.594 158.492 152.594C157.868 152.594 157.244 152.672 156.698 152.829C156.152 152.985 155.683 153.219 155.293 153.531C154.903 153.843 154.591 154.234 154.435 154.624C154.201 155.014 154.123 155.561 154.123 156.029C154.123 156.575 154.279 157.044 154.513 157.512C154.747 157.902 155.137 158.293 155.683 158.605C156.152 158.917 156.776 159.229 157.4 159.464C158.102 159.698 158.804 159.932 159.584 160.166C160.52 160.4 161.378 160.713 162.236 161.103C163.094 161.493 163.874 161.884 164.576 162.43C165.591 163.132 166.371 163.991 166.917 165.006C167.541 166.021 167.775 167.114 167.775 168.441C167.775 169.611 167.541 170.626 167.073 171.485C166.605 172.344 165.981 173.124 165.122 173.749C164.342 174.373 163.328 174.841 162.236 175.154C161.144 175.466 159.896 175.622 158.648 175.622C157.322 175.622 156.074 175.388 154.825 174.998C153.577 174.607 152.485 174.061 151.549 173.28C150.691 172.578 149.989 171.719 149.443 170.704C149.053 169.924 148.819 169.065 148.663 168.05C148.585 167.582 148.975 167.27 149.365 167.27H152.563C152.953 167.27 153.265 167.504 153.265 167.894C153.343 168.441 153.499 168.909 153.655 169.377C153.889 169.924 154.279 170.47 154.747 170.782C155.215 171.173 155.761 171.407 156.386 171.641C157.01 171.797 157.712 171.875 158.492 171.875C159.194 171.875 159.74 171.797 160.286 171.641C160.832 171.485 161.3 171.251 161.69 170.938C162.08 170.626 162.392 170.314 162.626 169.846C162.86 169.455 162.938 168.987 162.938 168.441C163.016 167.972 162.86 167.504 162.704 167.035Z" fill="black"/>
<path d="M180.178 167.348V174.608C180.178 174.998 179.866 175.31 179.476 175.31H176.2C175.81 175.31 175.498 174.998 175.498 174.608V149.863C175.498 149.472 175.81 149.16 176.2 149.16H179.476C179.866 149.16 180.178 149.472 180.178 149.863V161.259L188.993 149.394C189.149 149.238 189.383 149.082 189.617 149.082H194.298C194.61 149.082 194.766 149.394 194.532 149.628L184.625 162.508L195 174.842C195.156 175.076 195 175.388 194.688 175.388H190.085C189.851 175.388 189.617 175.232 189.461 174.998L180.1 164.46L180.178 167.348Z" fill="black"/>
<path d="M237.982 165.083H215.906C215.282 165.083 214.736 164.537 214.736 163.912C214.736 163.288 215.282 162.741 215.906 162.741H235.72L119.956 3.49934L4.19193 162.741H25.0981C25.7222 162.741 26.2682 163.288 26.2682 163.912C26.2682 164.537 25.7222 165.083 25.0981 165.083H1.9297C1.46165 165.083 1.07161 164.849 0.915595 164.459C0.681571 164.068 0.759579 163.6 0.993603 163.21L119.02 0.845312C119.488 0.220834 120.502 0.220834 120.892 0.845312L238.918 163.288C239.152 163.678 239.23 164.146 238.996 164.537C238.762 164.927 238.45 165.083 237.982 165.083Z" fill="black"/>
<path d="M120.034 142.93C119.722 142.93 119.488 142.852 119.254 142.618C118.552 141.993 102.56 127.318 98.114 120.683C96.7879 118.731 96.0858 116.312 96.0858 113.814C96.0858 106.788 101.702 101.09 108.645 101.09C113.638 101.09 118.006 104.056 120.034 108.427C122.141 104.212 126.431 101.402 131.267 101.402C138.288 101.402 143.827 106.866 143.827 113.814C143.827 116.78 143.203 119.044 141.877 120.917C136.884 127.942 121.516 142.071 120.814 142.618C120.58 142.774 120.268 142.93 120.034 142.93ZM108.645 103.432C103.029 103.432 98.4261 108.115 98.4261 113.814C98.4261 115.921 98.9721 117.795 100.064 119.434C103.809 125.054 116.68 137.153 120.034 140.198C123.311 137.153 135.792 125.523 139.926 119.59C141.018 118.029 141.487 116.312 141.487 113.814C141.487 108.193 136.962 103.744 131.267 103.744C126.119 103.744 121.75 107.647 121.126 112.799C121.048 113.423 120.58 113.814 119.956 113.814C119.332 113.814 118.864 113.345 118.786 112.721C118.318 107.413 113.95 103.432 108.645 103.432Z" fill="black"/>
<path d="M154.358 136.373C154.046 136.373 153.733 136.295 153.499 136.061C153.031 135.593 153.031 134.89 153.499 134.422L182.518 105.383C182.987 104.915 183.689 104.915 184.157 105.383C184.625 105.852 184.625 106.554 184.157 107.023L155.138 136.061C154.982 136.295 154.67 136.373 154.358 136.373Z" fill="black"/>
<path d="M177.214 141.603C176.902 141.603 176.59 141.524 176.356 141.29L168.945 133.875L161.534 141.29C161.066 141.759 160.364 141.759 159.896 141.29C159.428 140.822 159.428 140.119 159.896 139.651L168.165 131.377C168.633 130.908 169.335 130.908 169.803 131.377L178.072 139.651C178.54 140.119 178.54 140.822 178.072 141.29C177.838 141.524 177.526 141.603 177.214 141.603Z" fill="black"/>
<path d="M168.789 110.378C168.477 110.378 168.165 110.3 167.931 110.066L159.662 101.791C159.194 101.323 159.194 100.62 159.662 100.152C160.13 99.6837 160.832 99.6837 161.3 100.152L168.711 107.568L176.122 100.152C176.59 99.6837 177.292 99.6837 177.76 100.152C178.228 100.62 178.228 101.323 177.76 101.791L169.491 110.066C169.335 110.3 169.023 110.378 168.789 110.378Z" fill="black"/>
<path d="M168.789 142.461C168.165 142.461 167.619 141.914 167.619 141.29V100.152C167.619 99.5279 168.165 98.9814 168.789 98.9814C169.413 98.9814 169.959 99.5279 169.959 100.152V141.29C169.959 141.914 169.413 142.461 168.789 142.461Z" fill="black"/>
<path d="M188.603 130.051C188.291 130.051 187.979 129.973 187.745 129.738L179.476 121.386C179.008 120.918 179.008 120.215 179.476 119.747L187.745 111.472C188.213 111.004 188.915 111.004 189.383 111.472C189.851 111.941 189.851 112.643 189.383 113.112L181.972 120.527L189.383 127.943C189.851 128.411 189.851 129.114 189.383 129.582C189.149 129.894 188.915 130.051 188.603 130.051Z" fill="black"/>
<path d="M149.131 130.284C148.819 130.284 148.507 130.206 148.273 129.972C147.805 129.504 147.805 128.801 148.273 128.333L155.684 120.917L148.273 113.501C147.805 113.033 147.805 112.33 148.273 111.862C148.741 111.394 149.443 111.394 149.911 111.862L158.18 120.136C158.414 120.371 158.492 120.683 158.492 120.995C158.492 121.307 158.336 121.619 158.18 121.854L149.911 130.128C149.755 130.128 149.443 130.284 149.131 130.284Z" fill="black"/>
<path d="M189.383 121.933H148.273C147.649 121.933 147.103 121.386 147.103 120.762C147.103 120.137 147.649 119.591 148.273 119.591H189.383C190.007 119.591 190.553 120.137 190.553 120.762C190.553 121.386 190.085 121.933 189.383 121.933Z" fill="black"/>
<path d="M183.377 136.373C183.065 136.373 182.752 136.295 182.518 136.061L153.499 107.023C153.031 106.554 153.031 105.852 153.499 105.383C153.968 104.915 154.67 104.915 155.138 105.383L184.157 134.422C184.625 134.89 184.625 135.593 184.157 136.061C184.001 136.295 183.689 136.373 183.377 136.373Z" fill="black"/>
<path d="M99.9236 78.2963C97.1933 78.2963 94.931 76.0326 94.931 73.3005C94.931 70.5684 97.1933 68.3047 99.9236 68.3047C102.654 68.3047 104.916 70.5684 104.916 73.3005C104.916 76.0326 102.654 78.2963 99.9236 78.2963ZM99.9236 70.5684C98.4414 70.5684 97.2713 71.7393 97.2713 73.2225C97.2713 74.7056 98.4414 75.8765 99.9236 75.8765C101.406 75.8765 102.576 74.7056 102.576 73.2225C102.576 71.7393 101.406 70.5684 99.9236 70.5684Z" fill="black"/>
<path d="M117.163 91.7996C116.851 91.7996 116.539 91.7215 116.305 91.4873L104.292 79.4661C103.824 78.9978 103.824 78.2952 104.292 77.8269C104.76 77.3585 105.462 77.3585 105.93 77.8269L117.943 89.8481C118.411 90.3164 118.411 91.019 117.943 91.4873C117.709 91.7215 117.475 91.7996 117.163 91.7996Z" fill="black"/>
<path d="M94.5411 69.1626C94.229 69.1626 93.917 69.0845 93.683 68.8503L86.0382 61.2005C85.5701 60.7321 85.5701 60.0296 86.0382 59.5612C86.5062 59.0929 87.2083 59.0929 87.6763 59.5612L95.3211 67.2111C95.7892 67.6794 95.7892 68.382 95.3211 68.8503C95.1651 69.0845 94.8531 69.1626 94.5411 69.1626Z" fill="black"/>
<path d="M99.8454 93.3625C99.2213 93.3625 98.6753 92.8161 98.6753 92.1916V80.7949C98.6753 80.1704 99.2213 79.624 99.8454 79.624C100.469 79.624 101.016 80.1704 101.016 80.7949V92.1916C101.016 92.8161 100.469 93.3625 99.8454 93.3625Z" fill="black"/>
<path d="M99.8454 66.9771C99.2213 66.9771 98.6753 66.4306 98.6753 65.8062V52.3799C98.6753 51.7554 99.2213 51.209 99.8454 51.209C100.469 51.209 101.016 51.7554 101.016 52.3799V65.8062C101.016 66.5087 100.469 66.9771 99.8454 66.9771Z" fill="black"/>
<path d="M120.752 74.4707H107.334C106.71 74.4707 106.164 73.9243 106.164 73.2998C106.164 72.6753 106.71 72.1289 107.334 72.1289H120.752C121.376 72.1289 121.922 72.6753 121.922 73.2998C121.922 73.9243 121.376 74.4707 120.752 74.4707Z" fill="black"/>
<path d="M92.4349 74.4706L78.1594 74.3926C77.5353 74.3926 76.9893 73.8462 76.9893 73.2217C76.9893 72.5972 77.5353 72.0508 78.1594 72.0508L92.4349 72.1288C93.0589 72.1288 93.605 72.6753 93.605 73.2997C93.605 74.0023 93.0589 74.4706 92.4349 74.4706Z" fill="black"/>
<path d="M105.15 69.1639C104.838 69.1639 104.526 69.0859 104.292 68.8517C103.824 68.3833 103.824 67.6808 104.292 67.2124L119.66 51.8347C120.128 51.3663 120.83 51.3663 121.298 51.8347C121.766 52.303 121.766 53.0056 121.298 53.4739L105.93 68.8517C105.774 69.0859 105.462 69.1639 105.15 69.1639Z" fill="black"/>
<path d="M82.5279 91.7996C82.2158 91.7996 81.9038 91.7215 81.6698 91.4873C81.2017 91.019 81.2017 90.3164 81.6698 89.8481L93.683 77.8269C94.1511 77.3585 94.8531 77.3585 95.3212 77.8269C95.7892 78.2952 95.7892 78.9978 95.3212 79.4661L83.3079 91.4873C83.1519 91.7215 82.8399 91.7996 82.5279 91.7996Z" fill="black"/>
<path d="M112.077 41.8263C111.687 41.8263 111.375 41.6702 111.141 41.358L101.312 27.8536C100.922 27.3072 101.078 26.6047 101.546 26.2144C102.092 25.8241 102.794 25.9802 103.184 26.4486L113.091 39.9529C113.481 40.4993 113.325 41.2018 112.857 41.5921C112.623 41.7483 112.311 41.8263 112.077 41.8263Z" fill="black"/>
<path d="M129.005 33.7085C128.615 33.7085 128.303 33.5524 128.069 33.2401L122.765 25.9806C122.374 25.4342 122.53 24.7316 122.999 24.3413C123.545 23.951 124.247 24.1071 124.637 24.5755L129.941 31.8351C130.331 32.3815 130.175 33.084 129.707 33.4743C129.473 33.6304 129.239 33.7085 129.005 33.7085Z" fill="black"/>
<path d="M112.311 41.9832C112.077 41.9832 111.843 41.9051 111.609 41.749C111.063 41.3587 110.985 40.6562 111.375 40.1097L122.608 24.6539C122.998 24.1075 123.7 24.0294 124.246 24.4197C124.793 24.81 124.871 25.5126 124.48 26.059L113.247 41.5148C113.013 41.8271 112.701 41.9832 112.311 41.9832Z" fill="black"/>
<path d="M129.005 33.7086C128.771 33.7086 128.537 33.6305 128.303 33.4744C127.757 33.0841 127.679 32.3816 128.069 31.8351L134.388 23.1705C134.778 22.6241 135.48 22.546 136.026 22.9363C136.572 23.3266 136.65 24.0292 136.26 24.5756L129.941 33.2402C129.707 33.5524 129.395 33.7086 129.005 33.7086Z" fill="black"/>
<path d="M82.2779 142.384C79.0016 142.384 75.9593 140.901 73.853 138.325H71.4348C69.2506 141.057 65.8962 142.54 62.3859 142.306C56.9253 141.994 52.4788 137.467 52.2448 132.002C52.0888 129.036 53.1809 126.226 55.2091 124.118C57.2373 122.011 60.0456 120.84 63.0099 120.84H82.668H82.746C85.6323 120.996 88.2845 122.245 90.2347 124.431C92.185 126.538 93.121 129.348 92.965 132.237C92.653 137.623 88.2065 142.072 82.824 142.384C82.668 142.384 82.5119 142.384 82.2779 142.384ZM70.8887 135.983H74.4771C74.8672 135.983 75.1792 136.14 75.4132 136.452C77.1294 138.794 79.8597 140.121 82.746 139.964C86.9584 139.73 90.3908 136.218 90.6248 132.002C90.7808 129.739 90.0007 127.631 88.5186 125.914C87.0364 124.274 84.9302 123.26 82.668 123.104H63.0099C60.6697 123.104 58.5635 124.04 56.9253 125.68C55.2871 127.319 54.507 129.583 54.585 131.846C54.7411 136.14 58.2514 139.652 62.4639 139.886C65.3502 140.043 68.1585 138.716 69.7966 136.374C70.1867 136.14 70.4987 135.983 70.8887 135.983Z" fill="black"/>
<path d="M88.8307 125.445C88.2067 125.445 87.6606 124.899 87.6606 124.275V116C87.6606 115.532 87.5046 115.064 87.1145 114.751L77.6756 105.384C74.8673 102.574 70.3428 102.574 67.5345 105.462L58.2515 114.829C57.9395 115.142 57.7055 115.61 57.7055 116.078V124.275C57.7055 124.899 57.1594 125.445 56.5354 125.445C55.9113 125.445 55.3652 124.899 55.3652 124.275V116.078C55.3652 114.985 55.7553 113.971 56.5354 113.19L65.8183 103.823C69.4847 100.076 75.5693 100.076 79.3137 103.745L88.7527 113.112C89.5328 113.893 90.0008 114.985 90.0008 116.078V124.353C90.0008 124.899 89.4548 125.445 88.8307 125.445Z" fill="black"/>
<path d="M72.6828 103.276C69.7185 103.276 67.3003 100.856 67.3003 97.89C67.3003 94.9238 69.7185 92.5039 72.6828 92.5039C75.6472 92.5039 78.0654 94.9238 78.0654 97.89C78.0654 100.856 75.6472 103.276 72.6828 103.276ZM72.6828 94.8457C71.0447 94.8457 69.6405 96.1727 69.6405 97.89C69.6405 99.6073 70.9667 100.934 72.6828 100.934C74.321 100.934 75.7252 99.6073 75.7252 97.89C75.7252 96.1727 74.321 94.8457 72.6828 94.8457Z" fill="black"/>
<path d="M58.9535 134.657C58.6415 134.657 58.3294 134.579 58.0954 134.344C57.6274 133.876 57.6274 133.174 58.0954 132.705L63.478 127.319C63.946 126.851 64.6481 126.851 65.1161 127.319C65.5842 127.787 65.5842 128.49 65.1161 128.958L59.7336 134.344C59.5776 134.501 59.2655 134.657 58.9535 134.657Z" fill="black"/>
<path d="M58.4855 130.363C58.1735 130.363 57.8614 130.285 57.6274 130.051C57.1594 129.582 57.1594 128.88 57.6274 128.411L59.1876 126.85C59.6556 126.382 60.3577 126.382 60.8257 126.85C61.2938 127.319 61.2938 128.021 60.8257 128.49L59.2656 130.051C59.1096 130.207 58.7975 130.363 58.4855 130.363Z" fill="black"/>
<path d="M144.664 95.1634H140.295C139.692 95.1634 139.165 94.6357 139.165 94.0326V90.3388H125.755C125.303 90.3388 124.927 90.0373 124.701 89.6603C124.55 89.2834 124.625 88.7557 124.927 88.4542L134.946 77.8251H127.111C126.659 77.8251 126.283 77.5235 126.057 77.1466C125.906 76.7697 125.981 76.242 126.283 75.9405L137.357 64.1806H131.255C130.803 64.1806 130.351 63.8791 130.2 63.5022C130.049 63.1252 130.125 62.5976 130.426 62.296L141.651 51.0638C142.103 50.6115 142.781 50.6115 143.233 51.0638L154.458 62.296C154.759 62.5976 154.91 63.1252 154.684 63.5022C154.458 63.8791 154.081 64.1806 153.629 64.1806H147.527L158.601 75.9405C158.902 76.242 158.978 76.7697 158.827 77.1466C158.676 77.5235 158.224 77.8251 157.772 77.8251H149.938L159.957 88.4542C160.258 88.7557 160.334 89.2834 160.183 89.6603C160.032 90.0373 159.58 90.3388 159.128 90.3388H145.719V94.0326C145.794 94.6357 145.342 95.1634 144.664 95.1634ZM141.425 92.9018H143.534V89.208C143.534 88.605 144.062 88.0773 144.664 88.0773H156.642L146.623 77.4482C146.322 77.1466 146.246 76.6189 146.397 76.242C146.548 75.8651 147 75.5636 147.452 75.5636H155.286L144.212 63.8037C143.911 63.5022 143.836 62.9745 143.986 62.5976C144.137 62.2206 144.589 61.9191 145.041 61.9191H151.068L142.555 53.4007L133.967 61.8437H139.993C140.445 61.8437 140.822 62.1453 141.048 62.5222C141.199 62.8991 141.123 63.4268 140.822 63.7283L129.748 75.4882H137.583C138.035 75.4882 138.411 75.7897 138.637 76.1666C138.788 76.5436 138.713 77.0712 138.411 77.3728L128.392 88.0019H140.37C140.973 88.0019 141.5 88.5296 141.5 89.1327V92.9018H141.425Z" fill="black"/>
</svg>
