<svg width="353" height="203" viewBox="0 0 353 203" fill="none" xmlns="http://www.w3.org/2000/svg">
<path d="M8.21497 200.854H1.64065C0.788421 200.854 0.179688 200.124 0.179688 199.393V148.834C0.179688 147.981 0.910168 147.372 1.64065 147.372H18.1982C20.9984 147.372 23.5551 147.738 25.8682 148.59C28.1814 149.443 30.1294 150.54 31.8338 152.002C33.4165 153.463 34.7557 155.291 35.608 157.362C36.4602 159.433 36.9472 161.748 36.9472 164.306C36.9472 166.743 36.4602 168.936 35.608 171.007C34.7557 173.078 33.4165 174.783 31.8338 176.245C30.1294 177.707 28.1814 178.804 25.8682 179.656C23.5551 180.509 20.9984 180.875 18.1982 180.875H9.67593V199.393C9.79768 200.124 9.0672 200.854 8.21497 200.854ZM18.1982 173.078C19.6592 173.078 20.9984 172.834 22.0941 172.469C23.1898 171.981 24.1638 171.372 24.8943 170.641C25.6247 169.91 26.2335 168.936 26.5987 167.839C26.964 166.743 27.2075 165.646 27.2075 164.428C27.2075 163.088 26.964 161.87 26.5987 160.773C26.2335 159.677 25.6247 158.702 24.8943 157.849C24.1638 156.996 23.1898 156.387 21.9723 155.9C20.8766 155.413 19.5374 155.169 18.0764 155.169H9.55418V173.078H18.1982V173.078Z" fill="black"/>
<path d="M62.1486 148.834V199.271C62.1486 200.124 61.4181 200.733 60.6876 200.733H54.1133C53.2611 200.733 52.6523 200.002 52.6523 199.271V148.834C52.6523 147.981 53.3828 147.372 54.1133 147.372H60.6876C61.4181 147.372 62.1486 148.103 62.1486 148.834Z" fill="black"/>
<path d="M351.541 148.834V199.271C351.541 200.124 350.81 200.733 350.08 200.733H343.505C342.653 200.733 342.044 200.002 342.044 199.271V148.834C342.044 147.981 342.775 147.372 343.505 147.372H350.08C350.932 147.372 351.541 148.103 351.541 148.834Z" fill="black"/>
<path d="M103.421 155.291V199.393C103.421 200.246 102.69 200.855 101.96 200.855H95.3854C94.5331 200.855 93.9244 200.124 93.9244 199.393V155.291H79.0713C78.2191 155.291 77.6104 154.56 77.6104 153.829V148.956C77.6104 148.103 78.3408 147.494 79.0713 147.494H118.395C119.248 147.494 119.856 148.225 119.856 148.956V153.829C119.856 154.682 119.126 155.291 118.395 155.291H103.421Z" fill="black"/>
<path d="M143.232 177.098V192.936H167.459C168.311 192.936 168.92 193.667 168.92 194.398V199.149C168.92 200.002 168.19 200.611 167.459 200.611H135.196C134.344 200.611 133.735 199.88 133.735 199.149V148.834C133.735 147.981 134.466 147.372 135.196 147.372H167.337C168.19 147.372 168.798 148.103 168.798 148.834V153.707C168.798 154.56 168.068 155.169 167.337 155.169H143.232V169.423H163.685C164.537 169.423 165.146 170.154 165.146 170.885V175.514C165.146 176.367 164.416 176.976 163.685 176.976H143.232V177.098Z" fill="black"/>
<path d="M194 180.509V199.393C194 200.245 193.27 200.854 192.539 200.854H185.965C185.113 200.854 184.504 200.124 184.504 199.393V148.834C184.504 147.981 185.235 147.372 185.965 147.372H201.914C204.714 147.372 207.393 147.738 209.706 148.469C212.019 149.199 214.089 150.174 215.793 151.514C217.497 152.854 218.837 154.56 219.689 156.509C220.663 158.458 221.028 160.895 221.028 163.575C221.028 165.403 220.785 167.108 220.298 168.692C219.811 170.154 219.202 171.494 218.35 172.712C217.497 173.931 216.402 175.027 215.306 175.88C214.089 176.733 212.749 177.585 211.288 178.195L222.489 199.88C222.733 200.367 222.367 200.854 221.88 200.854H213.48C212.871 200.854 212.384 200.489 212.141 200.002L202.401 180.509H194V180.509ZM201.914 172.712C203.497 172.712 204.836 172.469 206.053 171.981C207.271 171.494 208.366 170.885 209.097 170.032C209.827 169.301 210.314 168.448 210.68 167.474C211.045 166.499 211.288 165.281 211.288 164.062C211.288 162.601 211.045 161.26 210.558 160.164C210.071 159.068 209.462 158.093 208.61 157.362C207.758 156.631 206.784 156.144 205.688 155.778C204.592 155.413 203.253 155.169 201.792 155.169H193.879V172.712H201.914V172.712Z" fill="black"/>
<path d="M262.908 184.042C262.543 183.189 261.812 182.337 260.96 181.606C260.108 180.875 259.012 180.266 257.673 179.656C256.334 179.047 254.873 178.56 253.046 178.073C250.368 177.342 247.811 176.367 245.62 175.271C243.429 174.174 241.602 172.956 240.141 171.616C238.68 170.276 237.585 168.814 236.732 167.108C236.002 165.403 235.515 163.575 235.515 161.504C235.515 159.311 236.002 157.24 236.976 155.413C237.95 153.585 239.289 152.002 240.994 150.783C242.698 149.443 244.646 148.469 246.837 147.859C249.029 147.128 251.464 146.885 254.02 146.885C256.699 146.885 259.256 147.25 261.447 148.103C263.76 148.956 265.708 150.052 267.413 151.514C269.117 152.976 270.334 154.682 271.308 156.631C272.039 158.215 272.526 159.799 272.648 161.504C272.769 162.357 272.039 163.21 271.187 163.21H265.343C264.004 163.21 263.395 162.722 263.273 161.991C263.151 161.139 262.908 160.408 262.664 159.799C262.177 158.702 261.69 157.849 260.838 157.118C259.986 156.387 259.012 155.778 257.916 155.291C256.821 154.804 255.481 154.682 253.899 154.682C252.559 154.682 251.342 154.804 250.246 155.169C249.151 155.535 248.177 156.022 247.446 156.631C246.716 157.24 246.107 157.971 245.62 158.946C245.255 159.799 245.011 160.773 245.011 161.87C245.011 162.966 245.255 163.941 245.863 164.915C246.472 165.768 247.203 166.499 248.177 167.23C249.151 167.961 250.368 168.57 251.707 169.057C253.046 169.545 254.507 170.032 256.09 170.519C257.916 171.007 259.743 171.738 261.447 172.469C263.151 173.2 264.734 174.174 266.195 175.149C268.143 176.611 269.848 178.438 270.943 180.387C272.161 182.458 272.769 184.773 272.769 187.453C272.769 189.768 272.282 191.839 271.308 193.667C270.334 195.494 268.995 196.956 267.291 198.296C265.586 199.514 263.638 200.489 261.447 201.098C259.134 201.707 256.699 202.073 254.142 202.073C251.464 202.073 248.907 201.707 246.35 200.854C243.794 200.002 241.602 198.905 239.654 197.321C237.828 195.86 236.489 194.032 235.393 192.083C234.541 190.499 234.054 188.672 233.932 186.722C233.811 185.87 234.541 185.017 235.393 185.017H241.968C242.698 185.017 243.307 185.504 243.429 186.235C243.55 187.332 243.794 188.306 244.281 189.159C244.889 190.377 245.62 191.352 246.594 192.083C247.568 192.814 248.664 193.423 250.003 193.788C251.342 194.154 252.803 194.398 254.264 194.398C255.603 194.398 256.821 194.276 257.916 193.91C259.012 193.545 259.986 193.179 260.717 192.57C261.447 191.961 262.056 191.23 262.543 190.377C263.03 189.524 263.151 188.55 263.151 187.575C263.517 185.87 263.273 184.895 262.908 184.042Z" fill="black"/>
<path d="M298.459 184.651V199.393C298.459 200.245 297.728 200.854 296.998 200.854H290.302C289.45 200.854 288.841 200.124 288.841 199.393V148.834C288.841 147.981 289.571 147.372 290.302 147.372H296.998C297.85 147.372 298.459 148.103 298.459 148.834V172.103L316.477 147.981C316.721 147.616 317.208 147.372 317.695 147.372H327.191C327.8 147.372 328.043 147.981 327.8 148.469L307.59 174.662L328.774 199.758C329.017 200.245 328.774 200.854 328.165 200.854H318.912C318.425 200.854 317.938 200.611 317.695 200.124L298.581 178.56L298.459 184.651Z" fill="black"/>
<path d="M172.738 129.048C171.941 129.048 171.343 128.849 170.745 128.251C168.951 126.655 128.095 89.1618 116.735 72.21C113.346 67.2242 111.553 61.0417 111.553 54.6599C111.553 36.7109 125.902 22.1523 143.64 22.1523C156.395 22.1523 167.556 29.7308 172.738 40.899C178.119 30.1296 189.081 22.9501 201.437 22.9501C219.374 22.9501 233.525 36.9104 233.525 54.6599C233.525 62.2383 231.93 68.0219 228.542 72.8082C215.787 90.7572 176.525 126.855 174.731 128.251C174.133 128.649 173.336 129.048 172.738 129.048ZM143.64 28.1353C129.291 28.1353 117.532 40.1013 117.532 54.6599C117.532 60.0446 118.927 64.8309 121.717 69.019C131.284 83.3782 164.168 114.29 172.738 122.068C181.109 114.29 212.997 84.5748 223.56 69.4179C226.35 65.4292 227.546 61.0417 227.546 54.6599C227.546 40.3007 215.986 28.933 201.437 28.933C188.284 28.933 177.123 38.9047 175.528 52.0673C175.329 53.6627 174.133 54.6599 172.539 54.6599C170.944 54.6599 169.749 53.4633 169.549 51.8678C168.353 38.3064 157.193 28.1353 143.64 28.1353Z" fill="black"/>
<path d="M260.414 112.297C259.616 112.297 258.819 112.097 258.221 111.499C257.026 110.303 257.026 108.508 258.221 107.311L332.361 33.1221C333.557 31.9255 335.351 31.9255 336.546 33.1221C337.742 34.3187 337.742 36.1136 336.546 37.3102L262.407 111.499C262.008 112.097 261.211 112.297 260.414 112.297Z" fill="black"/>
<path d="M318.806 125.656C318.009 125.656 317.212 125.457 316.614 124.858L297.681 105.912L278.747 124.858C277.551 126.055 275.757 126.055 274.562 124.858C273.366 123.662 273.366 121.867 274.562 120.67L295.688 99.5303C296.883 98.3337 298.677 98.3337 299.873 99.5303L320.999 120.67C322.195 121.867 322.195 123.662 320.999 124.858C320.401 125.457 319.604 125.656 318.806 125.656Z" fill="black"/>
<path d="M297.284 45.8844C296.487 45.8844 295.689 45.685 295.092 45.0867L273.966 23.9468C272.77 22.7502 272.77 20.9554 273.966 19.7588C275.162 18.5622 276.955 18.5622 278.151 19.7588L297.085 38.7049L316.018 19.7588C317.214 18.5622 319.008 18.5622 320.203 19.7588C321.399 20.9554 321.399 22.7502 320.203 23.9468L299.078 45.0867C298.679 45.685 297.882 45.8844 297.284 45.8844Z" fill="black"/>
<path d="M297.284 127.849C295.689 127.849 294.294 126.453 294.294 124.857V19.7561C294.294 18.1607 295.689 16.7646 297.284 16.7646C298.878 16.7646 300.273 18.1607 300.273 19.7561V124.857C300.273 126.453 298.878 127.849 297.284 127.849Z" fill="black"/>
<path d="M347.905 96.1417C347.108 96.1417 346.311 95.9423 345.713 95.344L324.587 74.0047C323.391 72.8081 323.391 71.0132 324.587 69.8166L345.713 48.6767C346.909 47.4801 348.702 47.4801 349.898 48.6767C351.094 49.8733 351.094 51.6682 349.898 52.8648L330.965 71.8109L349.898 90.757C351.094 91.9536 351.094 93.7485 349.898 94.9451C349.3 95.7429 348.702 96.1417 347.905 96.1417Z" fill="black"/>
<path d="M247.061 96.7419C246.264 96.7419 245.467 96.5425 244.869 95.9442C243.673 94.7476 243.673 92.9527 244.869 91.7561L263.802 72.8099L244.869 53.8638C243.673 52.6672 243.673 50.8724 244.869 49.6758C246.065 48.4792 247.858 48.4792 249.054 49.6758L270.18 70.8156C270.778 71.4139 270.977 72.2117 270.977 73.0094C270.977 73.8071 270.579 74.6049 270.18 75.2032L249.054 96.343C248.655 96.343 247.858 96.7419 247.061 96.7419Z" fill="black"/>
<path d="M349.899 75.4H244.867C243.273 75.4 241.878 74.0039 241.878 72.4085C241.878 70.813 243.273 69.417 244.867 69.417H349.899C351.493 69.417 352.888 70.813 352.888 72.4085C352.888 74.0039 351.693 75.4 349.899 75.4Z" fill="black"/>
<path d="M334.553 112.297C333.756 112.297 332.959 112.097 332.361 111.499L258.221 37.3102C257.026 36.1136 257.026 34.3187 258.221 33.1221C259.417 31.9255 261.211 31.9255 262.407 33.1221L336.546 107.311C337.742 108.508 337.742 110.303 336.546 111.499C336.148 112.097 335.351 112.297 334.553 112.297Z" fill="black"/>
<path d="M76.948 127.655C68.5774 127.655 60.8047 123.866 55.4235 117.284H49.2452C43.6648 124.264 35.0949 128.054 26.1263 127.455C12.1753 126.658 0.815155 115.091 0.217253 101.13C-0.181348 93.5518 2.60887 86.3722 7.79069 80.9875C12.9725 75.6028 20.1473 72.6113 27.7208 72.6113H77.9445H78.1438C85.5179 73.0102 92.2942 76.2011 97.2767 81.7852C102.259 87.1699 104.651 94.3495 104.252 101.728C103.455 115.489 92.0949 126.857 78.3431 127.655C77.9445 127.655 77.5459 127.655 76.948 127.655ZM47.8501 111.301H57.018C58.0145 111.301 58.8117 111.7 59.4096 112.498C63.7942 118.481 70.7697 121.871 78.1438 121.472C88.9061 120.874 97.6753 111.9 98.2732 101.13C98.6718 95.3467 96.6788 89.962 92.8921 85.5745C89.1054 81.3864 83.7242 78.7937 77.9445 78.3949H27.7208C21.7417 78.3949 16.3606 80.7881 12.1753 84.9762C7.98998 89.1642 5.99697 94.9478 6.19627 100.731C6.59488 111.7 15.5634 120.675 26.3256 121.273C33.6998 121.672 40.8746 118.281 45.0599 112.298C46.0564 111.7 46.8536 111.301 47.8501 111.301Z" fill="black"/>
<path d="M93.688 84.3782C92.0936 84.3782 90.6985 82.9822 90.6985 81.3867V60.2469C90.6985 59.0503 90.2999 57.8537 89.3034 57.0559L65.188 33.124C58.0132 25.9444 46.4537 25.9445 39.2789 33.3235L15.5621 57.2554C14.7649 58.0531 14.167 59.2497 14.167 60.4463V81.3867C14.167 82.9822 12.7719 84.3782 11.1775 84.3782C9.58309 84.3782 8.18799 82.9822 8.18799 81.3867V60.4463C8.18799 57.6542 9.18449 55.0616 11.1775 53.0673L34.8943 29.1354C44.2614 19.5626 59.8069 19.5626 69.3733 28.9359L93.4887 52.8678C95.4817 54.8622 96.6775 57.6542 96.6775 60.4463V81.5862C96.6775 82.9822 95.2824 84.3782 93.688 84.3782Z" fill="black"/>
<path d="M52.4336 27.7375C44.8602 27.7375 38.6819 21.5551 38.6819 13.9767C38.6819 6.39824 44.8602 0.21582 52.4336 0.21582C60.0071 0.21582 66.1854 6.39824 66.1854 13.9767C66.1854 21.5551 60.0071 27.7375 52.4336 27.7375ZM52.4336 6.1988C48.2483 6.1988 44.6609 9.58916 44.6609 13.9767C44.6609 18.3642 48.049 21.7546 52.4336 21.7546C56.6189 21.7546 60.2064 18.3642 60.2064 13.9767C60.2064 9.58916 56.6189 6.1988 52.4336 6.1988Z" fill="black"/>
<path d="M17.357 107.913C16.5598 107.913 15.7626 107.713 15.1647 107.115C13.9689 105.918 13.9689 104.123 15.1647 102.927L28.9164 89.166C30.1122 87.9694 31.9059 87.9694 33.1017 89.166C34.2975 90.3626 34.2975 92.1575 33.1017 93.3541L19.35 107.115C18.9514 107.514 18.1542 107.913 17.357 107.913Z" fill="black"/>
<path d="M16.1619 96.9422C15.3647 96.9422 14.5675 96.7428 13.9696 96.1445C12.7738 94.9479 12.7738 93.153 13.9696 91.9564L17.9556 87.9678C19.1514 86.7712 20.9451 86.7712 22.1409 87.9678C23.3367 89.1644 23.3367 90.9593 22.1409 92.1559L18.1549 96.1445C17.7563 96.5434 16.9591 96.9422 16.1619 96.9422Z" fill="black"/>
</svg>
